<svg xmlns="http://www.w3.org/2000/svg" version="1.1" id="svg2" width="100" height="100" viewBox="0 0 6666.6665 6666.6665" sodipodiDocname="vecteezy_pizza-logo-design-template-vector-illustration_7944090.eps" xmlnsInkscape="http://www.inkscape.org/namespaces/inkscape" xmlnsSodipodi="http://sodipodi.sourceforge.net/DTD/sodipodi-0.dtd" xmlnsSvg="http://www.w3.org/2000/svg">
  <defs id="defs6"/>
  <g id="g8" inkscapeGroupmode="layer" inkscapeLabel="ink_ext_XXXXXX" transform="matrix(1.3333333,0,0,-1.3333333,0,6666.6667)">
    <g id="g10" transform="scale(0.1)">
      <path d="m 12405.9,24113.4 c -4.4,-132.8 -7.4,-264.2 -7.4,-397.1 0,-6962.5 5644.1,-12606.7 12606.7,-12606.7 6962.5,0 12606.6,5644.2 12606.6,12606.7 0,132.9 -2.9,265.7 -7.4,397.1 h -25200 1.5" style="fill:#772d19;fill-opacity:1;fill-rule:nonzero;stroke:none" id="path14"/>
      <path d="m 30515,13316.8 c -1643.2,-874 -3516.7,-1370.1 -5508.4,-1370.1 -1990.1,0 -3865.1,496.1 -5508.3,1370.1 l 5508.3,9540.3 z m -11740.1,419.3 c -3200.7,2007.8 -5365.1,5515.7 -5505.3,9537.3 h 11012.1 z m 17970.3,9537.3 c -141.7,-4023.1 -2304.6,-7530.9 -5505.4,-9537.3 L 25733,23273.4 h 11012.2" style="fill:#ffcc3d;fill-opacity:1;fill-rule:nonzero;stroke:none" id="path16"/>
      <path d="m 19843.8,15586 -1068.9,-1851.4 c -3200.7,2007.9 -5365.1,5515.7 -5505.3,9537.3 h 2117.1 c 146.1,-3234.7 1888.2,-6053.1 4458.6,-7687.4 z m 9597.8,-411.9 1073.4,-1858.8 c -1643.2,-874 -3516.7,-1370 -5508.4,-1370 -1990.1,0 -3865.1,496 -5508.3,1370 l 1068.9,1852.9 c 1325.8,-689.5 2833.2,-1079.3 4432.1,-1079.3 1601.8,0 3112.1,392.7 4442.3,1085.2 z m 7303.6,8099.3 c -141.7,-4023.1 -2304.6,-7530.9 -5505.4,-9537.3 L 30168,15593.4 c 2564.5,1634.3 4302.1,4449.7 4448.3,7680 h 2130.4 -1.5" style="fill:#d55412;fill-opacity:1;fill-rule:nonzero;stroke:none" id="path18"/>
      <path d="m 20304.4,14709 c 618.6,-258.4 1269.7,-555.1 1714.1,-879.9 444.4,-326.3 1420.2,-326.3 1835.1,-206.7 414.9,118.1 1272.6,-221.4 1658,-236.2 385.3,-14.8 918.3,177.2 1687.4,311.5 769.2,132.9 1557.6,431.1 2041.9,710.1 150.5,87.1 293.8,211.2 448.8,341.1 l 826.7,-1432.1 c -1643.2,-874 -3516.7,-1370.1 -5508.3,-1370.1 -1990.1,0 -3865.1,496.1 -5508.3,1370.1 l 804.6,1393.7 z m -5455.1,8564.4 c 14.7,-109.3 19.2,-220 5.9,-327.8 -73.8,-636.3 -103.4,-695.3 73.8,-1154.5 177.2,-459.1 459.1,-813.4 444.4,-1331.7 -14.8,-518.2 547.7,-1243.1 783.9,-1584.1 236.2,-341 29.6,-665.8 326.3,-1228.3 296.7,-562.5 414.9,-562.5 857.8,-857.8 444.4,-295.3 473.9,-206.7 977.3,-621.5 503.5,-414.9 722,-522.7 947.8,-857.8 84.2,-125.5 163.9,-205.2 262.8,-268.7 l -752.9,-1305.1 c -3200.8,2007.8 -5365.1,5515.7 -5505.4,9537.3 h 1579.7 z m 21895.9,0 c -141.7,-4023.1 -2304.6,-7530.9 -5505.4,-9537.3 l -850.3,1473.4 c 208.1,87.1 451.7,144.7 745.5,144.7 1006.9,0 918.3,710.1 1598.9,1390.7 680.6,680.6 1125,977.4 1331.7,1835.1 206.7,857.8 828.3,1405.5 992.1,1879.4 162.4,474 -14.7,1243.1 -14.7,1746.6 0,310 78.2,739.6 156.5,1067.4 h 1547.2 -1.5" style="fill:#ed9352;fill-opacity:1;fill-rule:nonzero;stroke:none" id="path20"/>
      <path d="m 23360.5,16857.1 c 576.5,0 1043.8,-467.3 1043.8,-1043.8 0,-576.4 -467.3,-1043.8 -1043.8,-1043.8 -576.5,0 -1043.8,467.4 -1043.8,1043.8 0,576.5 467.3,1043.8 1043.8,1043.8" style="fill:#772d19;fill-opacity:1;fill-rule:nonzero;stroke:none" id="path22"/>
      <path d="m 23360.5,16727.2 c 504.7,0 913.9,-409.2 913.9,-913.9 0,-504.7 -409.2,-913.8 -913.9,-913.8 -504.7,0 -913.9,409.1 -913.9,913.8 0,504.7 409.2,913.9 913.9,913.9" style="fill:#f83822;fill-opacity:1;fill-rule:nonzero;stroke:none" id="path24"/>
      <path d="m 23359,15004.3 c 138.8,0 268.7,35.4 382.4,95.9 36.9,20.7 60.5,53.2 67.9,96 5.9,42.8 -7.4,81.2 -36.9,110.7 l -320.4,320.4 c -50.2,50.2 -134.3,50.2 -184.5,0 l -320.4,-320.4 c -29.5,-29.5 -42.8,-69.4 -36.9,-110.7 5.9,-42.8 29.5,-75.3 67.9,-96 113.7,-62 245.1,-95.9 382.4,-95.9 z m -184.5,900.6 -320.4,320.3 c -29.5,29.6 -69.4,42.9 -110.7,36.9 -42.8,-5.9 -75.3,-29.5 -96,-67.9 -62,-113.6 -95.9,-245 -95.9,-382.3 0,-138.8 35.4,-268.7 95.9,-382.4 20.7,-36.9 53.2,-60.6 96,-67.9 42.8,-5.9 81.2,7.3 110.7,36.9 l 320.4,320.3 c 50.2,50.2 50.2,134.4 0,184.6 z m 897.6,-475.4 c 62,113.7 96,245 96,382.4 0,138.7 -35.5,268.7 -96,382.3 -20.7,36.9 -53.1,60.6 -96,67.9 -42.8,6 -81.2,-7.3 -110.7,-36.9 l -320.4,-320.3 c -50.2,-50.2 -50.2,-134.4 0,-184.6 l 320.4,-320.4 c 29.5,-29.5 69.4,-42.8 110.7,-36.9 42.9,5.9 75.3,29.6 96,68 z m -329.2,1095.4 c -113.7,62 -245.1,96 -382.4,96 -138.8,0 -268.7,-35.4 -382.4,-96 -36.9,-20.6 -60.5,-53.1 -67.9,-95.9 -5.9,-42.8 7.4,-81.2 36.9,-110.8 l 320.4,-320.3 c 50.2,-50.2 134.3,-50.2 184.5,0 l 320.4,320.3 c 29.5,29.6 42.8,69.4 36.9,110.8 -5.9,42.8 -29.5,75.3 -67.9,95.9 h 1.5" style="fill:#d42411;fill-opacity:1;fill-rule:nonzero;stroke:none" id="path26"/>
      <path d="m 23493.4,16259.2 c -28.1,11.8 -22.2,70.9 14.7,134.3 35.5,63.5 88.6,104.9 116.7,93 28,-11.8 22.1,-70.8 -14.8,-134.3 -35.4,-63.5 -88.6,-104.8 -116.6,-93 z m -267.3,0 c 28.1,11.8 22.2,70.9 -14.7,134.3 -35.4,63.5 -88.6,104.9 -116.6,93 -28.1,-11.8 -22.2,-70.8 14.7,-134.3 35.5,-63.5 88.6,-104.8 116.6,-93 z m 267.3,-885.8 c -28.1,-11.8 -22.2,-70.9 14.7,-134.4 35.5,-63.5 88.6,-104.8 116.7,-93 28,11.8 22.1,70.9 -14.8,134.4 -35.4,63.4 -88.6,104.8 -116.6,93 z m -267.3,0 c 28.1,-11.8 22.2,-70.9 -14.7,-134.4 -35.4,-63.5 -88.6,-104.8 -116.6,-93 -28.1,11.8 -22.2,70.9 14.7,134.4 35.5,63.4 88.6,104.8 116.6,93 z m 132.9,-31 c 31,0 56.1,-56.1 56.1,-127 0,-69.4 -25.1,-127 -56.1,-127 -31,0 -56.1,56.1 -56.1,127 0,69.4 25.1,127 56.1,127 z m -442.9,606.8 c -11.8,-28.1 -70.9,-22.2 -134.3,14.7 -63.5,35.5 -104.9,88.6 -93,116.7 11.8,28 70.8,22.1 134.3,-14.8 63.5,-35.4 104.8,-88.6 93,-116.6 z m 0,-267.3 c -11.8,28.1 -70.9,22.2 -134.3,-14.7 -63.5,-35.5 -104.9,-88.6 -93,-116.7 11.8,-28 70.8,-22.1 134.3,14.8 63.5,35.4 104.8,88.6 93,116.6 z m 885.8,267.3 c 11.8,-28.1 70.9,-22.2 134.4,14.7 63.5,35.5 104.8,88.6 93,116.7 -11.8,28 -70.9,22.1 -134.4,-14.8 -63.4,-35.4 -104.8,-88.6 -93,-116.6 z m 0,-267.3 c 11.8,28.1 70.9,22.2 134.4,-14.7 63.5,-35.5 104.8,-88.6 93,-116.7 -11.8,-28 -70.9,-22.1 -134.4,14.8 -63.4,35.4 -104.8,88.6 -93,116.6 z m 31,132.9 c 0,31 56.1,56.1 127,56.1 69.4,0 127,-25.1 127,-56.1 0,-31 -56.1,-56.1 -127,-56.1 -69.4,0 -127,25.1 -127,56.1 z m -946.3,0 c 0,31 -56.1,56.1 -127,56.1 -69.4,0 -126.9,-25.1 -126.9,-56.1 0,-31 56.1,-56.1 126.9,-56.1 69.4,0 127,25.1 127,56.1 z m 473.9,473.9 c 31,0 56.1,56.1 56.1,127 0,69.4 -25.1,127 -56.1,127 -31,0 -56.1,-56.2 -56.1,-127 0,-69.4 25.1,-127 56.1,-127" style="fill:#ffcc3d;fill-opacity:1;fill-rule:nonzero;stroke:none" id="path28"/>
      <path d="m 24963.8,20527.4 c 576.5,0 1043.8,-467.4 1043.8,-1043.8 0,-576.5 -467.3,-1043.8 -1043.8,-1043.8 -576.4,0 -1043.8,467.3 -1043.8,1043.8 0,576.4 467.4,1043.8 1043.8,1043.8" style="fill:#772d19;fill-opacity:1;fill-rule:nonzero;stroke:none" id="path30"/>
      <path d="m 24963.8,20397.4 c 504.7,0 913.9,-409.1 913.9,-913.8 0,-504.7 -409.2,-913.9 -913.9,-913.9 -504.7,0 -913.8,409.2 -913.8,913.9 0,504.7 409.1,913.8 913.8,913.8" style="fill:#f83822;fill-opacity:1;fill-rule:nonzero;stroke:none" id="path32"/>
      <path d="m 24963.8,18676 c 138.8,0 268.7,35.4 382.4,96 36.9,20.6 60.5,53.1 67.9,95.9 5.9,42.8 -7.4,81.2 -36.9,110.7 l -320.4,320.4 c -50.2,50.2 -134.3,50.2 -184.5,0 l -320.4,-320.4 c -29.5,-29.5 -42.8,-69.3 -36.9,-110.7 5.9,-42.8 29.5,-75.3 67.9,-95.9 113.7,-62 245.1,-96 382.4,-96 z m -184.5,900.6 -320.4,320.3 c -29.5,29.6 -69.4,42.9 -110.7,37 -42.8,-5.9 -75.3,-29.6 -96,-68 -62,-113.6 -95.9,-245 -95.9,-382.3 0,-138.8 35.4,-268.7 95.9,-382.4 20.7,-36.9 53.2,-60.5 96,-67.9 42.8,-5.9 81.2,7.4 110.7,36.9 l 320.4,320.4 c 50.2,50.2 50.2,134.3 0,184.5 z m 897.6,-475.4 c 62,113.7 96,245.1 96,382.4 0,138.7 -35.5,268.7 -96,382.3 -20.7,37 -53.1,60.6 -95.9,68 -42.9,5.9 -81.2,-7.4 -110.8,-37 l -320.4,-320.3 c -50.1,-50.2 -50.1,-134.4 0,-184.6 l 320.4,-320.3 c 29.6,-29.6 69.4,-42.8 110.8,-36.9 42.8,5.9 75.2,29.5 95.9,67.9 z m -329.2,1095.5 c -113.7,62 -245.1,95.9 -382.4,95.9 -138.8,0 -268.7,-35.4 -382.4,-95.9 -36.9,-20.7 -60.5,-53.2 -67.9,-96 -5.9,-42.8 7.4,-81.2 36.9,-110.7 l 320.4,-320.4 c 50.2,-50.2 134.3,-50.2 184.5,0 l 320.4,320.4 c 29.5,29.5 42.8,69.4 36.9,110.7 -5.9,42.8 -29.5,75.3 -67.9,96 h 1.5" style="fill:#d42411;fill-opacity:1;fill-rule:nonzero;stroke:none" id="path34"/>
      <path d="m 25096.7,19929.4 c -28.1,11.8 -22.1,70.9 14.8,134.4 35.4,63.5 88.5,104.8 116.6,93 28,-11.8 22.1,-70.9 -14.8,-134.4 -35.4,-63.4 -88.5,-104.8 -116.6,-93 z m -267.2,0 c 28,11.8 22.1,70.9 -14.8,134.4 -35.4,63.5 -88.6,104.8 -116.6,93 -28.1,-11.8 -22.2,-70.9 14.7,-134.4 35.5,-63.4 88.6,-104.8 116.7,-93 z m 267.2,-885.8 c -28.1,-11.8 -22.1,-70.9 14.8,-134.3 35.4,-63.5 88.5,-104.9 116.6,-93 28,11.8 22.1,70.8 -14.8,134.3 -35.4,63.5 -88.5,104.8 -116.6,93 z m -267.2,0 c 28,-11.8 22.1,-70.9 -14.8,-134.3 -35.4,-63.5 -88.6,-104.9 -116.6,-93 -28.1,11.8 -22.2,70.8 14.7,134.3 35.5,63.5 88.6,104.8 116.7,93 z m 132.9,-31 c 31,0 56.1,-56.1 56.1,-127 0,-69.3 -25.1,-126.9 -56.1,-126.9 -31.1,0 -56.1,56.1 -56.1,126.9 0,69.4 25,127 56.1,127 z m -443,606.8 c -11.8,-28.1 -70.8,-22.1 -134.3,14.8 -63.5,35.4 -104.8,88.5 -93,116.6 11.8,28 70.8,22.1 134.3,-14.8 63.5,-35.4 104.9,-88.6 93,-116.6 z m 0,-267.2 c -11.8,28 -70.8,22.1 -134.3,-14.8 -63.5,-35.4 -104.8,-88.6 -93,-116.6 11.8,-28.1 70.8,-22.2 134.3,14.7 63.5,35.5 104.9,88.6 93,116.7 z m 885.9,267.2 c 11.8,-28.1 70.8,-22.1 134.3,14.8 63.5,35.4 104.8,88.5 93,116.6 -11.8,28 -70.8,22.1 -134.3,-14.8 -63.5,-35.4 -104.8,-88.6 -93,-116.6 z m 0,-267.2 c 11.8,28 70.8,22.1 134.3,-14.8 63.5,-35.4 104.8,-88.6 93,-116.6 -11.8,-28.1 -70.8,-22.2 -134.3,14.7 -63.5,35.5 -104.8,88.6 -93,116.7 z m 31,132.8 c 0,31 56.1,56.1 126.9,56.1 69.4,0 127,-25.1 127,-56.1 0,-31 -56.1,-56.1 -127,-56.1 -69.4,0 -126.9,25.1 -126.9,56.1 z m -946.4,0 c 0,31 -56.1,56.1 -127,56.1 -69.3,0 -126.9,-25.1 -126.9,-56.1 0,-31 56.1,-56.1 126.9,-56.1 69.4,0 127,25.1 127,56.1 z m 473.9,474 c 31,0 56.1,56.1 56.1,126.9 0,69.4 -25.1,127 -56.1,127 -31,0 -56.1,-56.1 -56.1,-127 0,-69.4 25.1,-126.9 56.1,-126.9" style="fill:#ffcc3d;fill-opacity:1;fill-rule:nonzero;stroke:none" id="path36"/>
      <path d="m 26738.4,17450.6 c 576.5,0 1043.8,-467.3 1043.8,-1043.8 0,-576.4 -467.3,-1043.8 -1043.8,-1043.8 -576.5,0 -1043.8,467.4 -1043.8,1043.8 0,576.5 467.3,1043.8 1043.8,1043.8" style="fill:#772d19;fill-opacity:1;fill-rule:nonzero;stroke:none" id="path38"/>
      <path d="m 26738.4,17320.7 c 504.7,0 913.9,-409.2 913.9,-913.9 0,-504.7 -409.2,-913.8 -913.9,-913.8 -504.7,0 -913.9,409.1 -913.9,913.8 0,504.7 409.2,913.9 913.9,913.9" style="fill:#f83822;fill-opacity:1;fill-rule:nonzero;stroke:none" id="path40"/>
      <path d="m 26736.9,15599.3 c 138.8,0 268.7,35.4 382.4,95.9 36.9,20.7 60.5,53.2 67.9,96 5.9,42.8 -7.4,81.2 -36.9,110.7 l -320.3,320.4 c -50.2,50.2 -134.4,50.2 -184.6,0 l -320.4,-320.4 c -29.5,-29.5 -42.8,-69.4 -36.9,-110.7 5.9,-42.8 29.6,-75.3 67.9,-96 113.7,-62 245.1,-95.9 382.4,-95.9 z m -184.5,900.5 -320.4,320.4 c -29.5,29.5 -69.4,42.8 -110.7,36.9 -42.8,-5.9 -75.3,-29.5 -96,-67.9 -62,-113.7 -95.9,-245.1 -95.9,-382.4 0,-138.7 35.4,-268.7 95.9,-382.4 20.7,-36.9 53.2,-60.5 96,-67.9 42.8,-5.9 81.2,7.4 110.7,36.9 l 320.4,320.4 c 50.2,50.2 50.2,134.4 0,184.6 z m 897.6,-475.4 c 62,113.7 96,245.1 96,382.4 0,138.8 -35.4,268.7 -96,382.4 -20.6,36.9 -53.1,60.5 -95.9,67.9 -42.9,5.9 -81.2,-7.4 -110.8,-36.9 l -320.3,-320.4 c -50.2,-50.2 -50.2,-134.3 0,-184.5 l 320.3,-320.4 c 29.6,-29.5 69.4,-42.8 110.8,-36.9 42.8,5.9 75.3,29.5 95.9,67.9 z m -329.2,1095.5 c -113.7,62 -245.1,96 -382.4,96 -138.8,0 -268.7,-35.5 -382.4,-96 -36.9,-20.7 -60.5,-53.1 -67.9,-95.9 -5.9,-42.9 7.4,-81.3 36.9,-110.8 l 320.4,-320.4 c 50.2,-50.1 134.4,-50.1 184.6,0 l 320.3,320.4 c 29.5,29.5 42.8,69.4 36.9,110.8 -5.9,42.8 -29.5,75.2 -67.9,95.9 h 1.5" style="fill:#d42411;fill-opacity:1;fill-rule:nonzero;stroke:none" id="path42"/>
      <path d="m 26871.3,16852.7 c -28.1,11.8 -22.2,70.8 14.7,134.3 35.5,63.5 88.6,104.9 116.7,93 28,-11.8 22.1,-70.8 -14.8,-134.3 -35.4,-63.5 -88.6,-104.8 -116.6,-93 z m -267.2,0 c 28,11.8 22.1,70.8 -14.8,134.3 -35.4,63.5 -88.6,104.9 -116.6,93 -28.1,-11.8 -22.2,-70.8 14.7,-134.3 35.5,-63.5 88.6,-104.8 116.7,-93 z m 267.2,-885.8 c -28.1,-11.8 -22.2,-70.9 14.7,-134.4 35.5,-63.5 88.6,-104.8 116.7,-93 28,11.8 22.1,70.9 -14.8,134.4 -35.4,63.4 -88.6,104.8 -116.6,93 z m -267.2,0 c 28,-11.8 22.1,-70.9 -14.8,-134.4 -35.4,-63.5 -88.6,-104.8 -116.6,-93 -28.1,11.8 -22.2,70.9 14.7,134.4 35.5,63.4 88.6,104.8 116.7,93 z m 132.8,-31 c 31,0 56.1,-56.1 56.1,-127 0,-69.4 -25.1,-127 -56.1,-127 -31,0 -56.1,56.1 -56.1,127 0,69.4 25.1,127 56.1,127 z m -442.9,606.8 c -11.8,-28.1 -70.8,-22.2 -134.3,14.7 -63.5,35.4 -104.8,88.6 -93,116.6 11.8,28.1 70.8,22.2 134.3,-14.7 63.5,-35.4 104.8,-88.6 93,-116.6 z m 0,-267.3 c -11.8,28.1 -70.8,22.2 -134.3,-14.7 -63.5,-35.5 -104.8,-88.6 -93,-116.7 11.8,-28 70.8,-22.1 134.3,14.8 63.5,35.4 104.8,88.6 93,116.6 z m 885.8,267.3 c 11.9,-28.1 70.9,-22.2 134.4,14.7 63.5,35.4 104.8,88.6 93,116.6 -11.8,28.1 -70.9,22.2 -134.3,-14.7 -63.5,-35.4 -104.9,-88.6 -93.1,-116.6 z m 0,-267.3 c 11.9,28.1 70.9,22.2 134.4,-14.7 63.5,-35.5 104.8,-88.6 93,-116.7 -11.8,-28 -70.9,-22.1 -134.3,14.8 -63.5,35.4 -104.9,88.6 -93.1,116.6 z m 31.1,132.9 c 0,31 56.1,56.1 126.9,56.1 69.4,0 127,-25.1 127,-56.1 0,-31 -56.1,-56.1 -127,-56.1 -69.4,0 -126.9,25.1 -126.9,56.1 z m -946.4,0 c 0,31 -56.1,56.1 -127,56.1 -69.4,0 -126.9,-25.1 -126.9,-56.1 0,-31 56.1,-56.1 126.9,-56.1 69.4,0 127,25.1 127,56.1 z m 473.9,473.9 c 31,0 56.1,56.1 56.1,127 0,69.4 -25.1,126.9 -56.1,126.9 -31,0 -56.1,-56.1 -56.1,-126.9 0,-69.4 25.1,-127 56.1,-127" style="fill:#ffcc3d;fill-opacity:1;fill-rule:nonzero;stroke:none" id="path44"/>
      <path d="m 18661.2,19343.3 c 576.5,0 1043.8,-467.3 1043.8,-1043.8 0,-576.4 -467.3,-1043.8 -1043.8,-1043.8 -576.4,0 -1043.8,467.4 -1043.8,1043.8 0,576.5 467.4,1043.8 1043.8,1043.8" style="fill:#772d19;fill-opacity:1;fill-rule:nonzero;stroke:none" id="path46"/>
      <path d="m 18661.2,19213.4 c 504.7,0 913.9,-409.2 913.9,-913.9 0,-504.7 -409.2,-913.8 -913.9,-913.8 -504.7,0 -913.8,409.1 -913.8,913.8 0,504.7 409.1,913.9 913.8,913.9" style="fill:#f83822;fill-opacity:1;fill-rule:nonzero;stroke:none" id="path48"/>
      <path d="m 18659.8,17492 c 138.7,0 268.7,35.4 382.3,95.9 36.9,20.7 60.6,53.2 67.9,96 6,42.8 -7.3,81.2 -36.9,110.7 l -320.3,320.4 c -50.2,50.2 -134.4,50.2 -184.6,0 l -320.3,-320.4 c -29.6,-29.5 -42.9,-69.4 -37,-110.7 5.9,-42.8 29.6,-75.3 68,-96 113.6,-62 245,-95.9 382.3,-95.9 z m -184.6,900.5 -320.4,320.4 c -29.5,29.5 -69.3,42.8 -110.7,36.9 -42.8,-5.9 -75.3,-29.5 -96,-67.9 -62,-113.7 -95.9,-245.1 -95.9,-382.4 0,-138.8 35.4,-268.7 95.9,-382.4 20.7,-36.9 53.2,-60.5 96,-67.9 42.8,-5.9 81.2,7.4 110.7,36.9 l 320.4,320.4 c 50.2,50.2 50.2,134.4 0,184.6 z m 897.6,-475.4 c 62,113.7 96,245.1 96,382.4 0,138.8 -35.4,268.7 -96,382.4 -20.6,36.9 -53.1,60.5 -95.9,67.9 -42.8,5.9 -81.2,-7.4 -110.8,-36.9 l -320.3,-320.4 c -50.2,-50.2 -50.2,-134.3 0,-184.5 l 320.3,-320.4 c 29.6,-29.5 69.4,-42.8 110.8,-36.9 42.8,5.9 75.3,29.5 95.9,67.9 z m -329.2,1095.5 c -113.7,62 -245.1,96 -382.4,96 -138.7,0 -268.7,-35.5 -382.3,-96 -37,-20.7 -60.6,-53.1 -68,-96 -5.9,-42.8 7.4,-81.2 37,-110.7 l 320.3,-320.4 c 50.2,-50.2 134.4,-50.2 184.6,0 l 320.3,320.4 c 29.6,29.5 42.9,69.4 36.9,110.7 -5.9,42.9 -29.5,75.3 -67.9,96 h 1.5" style="fill:#d42411;fill-opacity:1;fill-rule:nonzero;stroke:none" id="path50"/>
      <path d="m 18794.1,18745.4 c -28,11.8 -22.1,70.9 14.8,134.3 35.4,63.5 88.6,104.9 116.6,93 28.1,-11.8 22.1,-70.8 -14.8,-134.3 -35.4,-63.5 -88.5,-104.8 -116.6,-93 z m -267.2,0 c 28,11.8 22.1,70.9 -14.8,134.3 -35.4,63.5 -88.6,104.9 -116.6,93 -28.1,-11.8 -22.2,-70.8 14.8,-134.3 35.4,-63.5 88.5,-104.8 116.6,-93 z m 267.2,-885.8 c -28,-11.8 -22.1,-70.9 14.8,-134.4 35.4,-63.5 88.6,-104.8 116.6,-93 28.1,11.8 22.1,70.9 -14.8,134.4 -35.4,63.4 -88.5,104.8 -116.6,93 z m -267.2,0 c 28,-11.8 22.1,-70.9 -14.8,-134.4 -35.4,-63.5 -88.6,-104.8 -116.6,-93 -28.1,11.8 -22.2,70.9 14.8,134.4 35.4,63.4 88.5,104.8 116.6,93 z m 132.9,-31 c 31,0 56.1,-56.1 56.1,-127 0,-69.4 -25.1,-127 -56.1,-127 -31,0 -56.1,56.1 -56.1,127 0,69.4 25.1,127 56.1,127 z m -443,606.7 c -11.8,-28 -70.8,-22.1 -134.3,14.8 -63.5,35.4 -104.8,88.6 -93,116.6 11.8,28.1 70.9,22.2 134.3,-14.7 63.5,-35.5 104.9,-88.6 93,-116.7 z m 0,-267.2 c -11.8,28.1 -70.8,22.2 -134.3,-14.7 -63.5,-35.5 -104.8,-88.6 -93,-116.7 11.8,-28 70.9,-22.1 134.3,14.8 63.5,35.4 104.9,88.6 93,116.6 z m 885.9,267.2 c 11.8,-28 70.8,-22.1 134.3,14.8 63.5,35.4 104.8,88.6 93,116.6 -11.8,28.1 -70.8,22.2 -134.3,-14.7 -63.5,-35.5 -104.8,-88.6 -93,-116.7 z m 0,-267.2 c 11.8,28.1 70.8,22.2 134.3,-14.7 63.5,-35.5 104.8,-88.6 93,-116.7 -11.8,-28 -70.8,-22.1 -134.3,14.8 -63.5,35.4 -104.8,88.6 -93,116.6 z m 31,132.9 c 0,31 56.1,56.1 126.9,56.1 69.4,0 127,-25.1 127,-56.1 0,-31 -56.1,-56.1 -127,-56.1 -69.3,0 -126.9,25.1 -126.9,56.1 z m -946.4,0 c 0,31 -56.1,56.1 -126.9,56.1 -69.4,0 -127,-25.1 -127,-56.1 0,-31 56.1,-56.1 127,-56.1 69.3,0 126.9,25.1 126.9,56.1 z m 473.9,473.9 c 31,0 56.1,56.1 56.1,127 0,69.4 -25.1,127 -56.1,127 -31,0 -56.1,-56.2 -56.1,-127 0,-69.4 25.1,-127 56.1,-127" style="fill:#ffcc3d;fill-opacity:1;fill-rule:nonzero;stroke:none" id="path52"/>
      <path d="m 17412.2,22681.4 c 576.5,0 1043.8,-467.4 1043.8,-1043.8 0,-576.5 -467.3,-1043.8 -1043.8,-1043.8 -576.4,0 -1043.8,467.3 -1043.8,1043.8 0,576.4 467.4,1043.8 1043.8,1043.8" style="fill:#772d19;fill-opacity:1;fill-rule:nonzero;stroke:none" id="path54"/>
      <path d="m 17412.2,22551.5 c 504.7,0 913.9,-409.2 913.9,-913.9 0,-504.7 -409.2,-913.9 -913.9,-913.9 -504.7,0 -913.8,409.2 -913.8,913.9 0,504.7 409.1,913.9 913.8,913.9" style="fill:#f83822;fill-opacity:1;fill-rule:nonzero;stroke:none" id="path56"/>
      <path d="m 17410.8,20830 c 138.7,0 268.7,35.4 382.3,96 36.9,20.6 60.6,53.1 67.9,95.9 5.9,42.9 -7.3,81.2 -36.9,110.8 l -320.3,320.3 c -50.2,50.2 -134.4,50.2 -184.6,0 l -320.4,-320.3 c -29.5,-29.6 -42.8,-69.4 -36.9,-110.8 5.9,-42.8 29.6,-75.3 68,-95.9 113.6,-62 245,-96 382.3,-96 z m -184.6,900.6 -320.4,320.4 c -29.5,29.5 -69.3,42.8 -110.7,36.9 -42.8,-5.9 -75.3,-29.6 -96,-67.9 -62,-113.7 -95.9,-245.1 -95.9,-382.4 0,-138.8 35.4,-268.7 95.9,-382.4 20.7,-36.9 53.2,-60.5 96,-67.9 42.8,-5.9 81.2,7.4 110.7,36.9 l 320.4,320.4 c 50.2,50.2 50.2,134.3 0,184.5 z m 897.6,-475.4 c 62,113.7 96,245.1 96,382.4 0,138.8 -35.4,268.7 -96,382.4 -20.6,36.9 -53.1,60.5 -95.9,67.9 -42.8,5.9 -81.2,-7.4 -110.8,-36.9 l -320.3,-320.4 c -50.2,-50.2 -50.2,-134.4 0,-184.6 l 320.3,-320.3 c 29.6,-29.6 69.4,-42.8 110.8,-36.9 42.8,5.9 75.3,29.5 95.9,67.9 z m -329.2,1095.5 c -113.7,62 -245.1,95.9 -382.4,95.9 -138.7,0 -268.7,-35.4 -382.3,-95.9 -37,-20.7 -60.6,-53.2 -68,-96 -5.9,-42.8 7.4,-81.2 36.9,-110.7 l 320.4,-320.4 c 50.2,-50.2 134.4,-50.2 184.6,0 l 320.3,320.4 c 29.6,29.5 42.8,69.4 36.9,110.7 -5.9,42.8 -29.5,75.3 -67.9,96 h 1.5" style="fill:#d42411;fill-opacity:1;fill-rule:nonzero;stroke:none" id="path58"/>
      <path d="m 17545.1,22083.4 c -28,11.9 -22.1,70.9 14.8,134.4 35.4,63.5 88.5,104.8 116.6,93 28.1,-11.8 22.1,-70.9 -14.8,-134.3 -35.4,-63.5 -88.5,-104.9 -116.6,-93.1 z m -267.2,0 c 28,11.9 22.1,70.9 -14.8,134.4 -35.4,63.5 -88.6,104.8 -116.6,93 -28.1,-11.8 -22.2,-70.9 14.8,-134.3 35.4,-63.5 88.5,-104.9 116.6,-93.1 z m 267.2,-885.8 c -28,-11.8 -22.1,-70.8 14.8,-134.3 35.4,-63.5 88.5,-104.8 116.6,-93 28.1,11.8 22.1,70.8 -14.8,134.3 -35.4,63.5 -88.5,104.8 -116.6,93 z m -267.2,0 c 28,-11.8 22.1,-70.8 -14.8,-134.3 -35.4,-63.5 -88.6,-104.8 -116.6,-93 -28.1,11.8 -22.2,70.8 14.8,134.3 35.4,63.5 88.5,104.8 116.6,93 z m 132.9,-31 c 31,0 56.1,-56.1 56.1,-126.9 0,-69.4 -25.1,-127 -56.1,-127 -31,0 -56.1,56.1 -56.1,127 0,69.3 25.1,126.9 56.1,126.9 z m -443,606.8 c -11.8,-28 -70.8,-22.1 -134.3,14.8 -63.5,35.4 -104.8,88.6 -93,116.6 11.8,28.1 70.8,22.1 134.3,-14.8 63.5,-35.4 104.9,-88.5 93,-116.6 z m 0,-267.2 c -11.8,28 -70.8,22.1 -134.3,-14.8 -63.5,-35.4 -104.8,-88.6 -93,-116.6 11.8,-28.1 70.8,-22.2 134.3,14.8 63.5,35.4 104.9,88.5 93,116.6 z m 885.9,267.2 c 11.8,-28 70.8,-22.1 134.3,14.8 63.5,35.4 104.8,88.6 93,116.6 -11.8,28.1 -70.8,22.1 -134.3,-14.8 -63.5,-35.4 -104.8,-88.5 -93,-116.6 z m 0,-267.2 c 11.8,28 70.8,22.1 134.3,-14.8 63.5,-35.4 104.8,-88.6 93,-116.6 -11.8,-28.1 -70.8,-22.2 -134.3,14.8 -63.5,35.4 -104.8,88.5 -93,116.6 z m 31,132.9 c 0,31 56.1,56.1 126.9,56.1 69.4,0 127,-25.1 127,-56.1 0,-31 -56.1,-56.1 -127,-56.1 -69.4,0 -126.9,25.1 -126.9,56.1 z m -946.4,0 c 0,31 -56.1,56.1 -127,56.1 -69.3,0 -126.9,-25.1 -126.9,-56.1 0,-31 56.1,-56.1 126.9,-56.1 69.4,0 127,25.1 127,56.1 z m 473.9,473.9 c 31,0 56.1,56.1 56.1,126.9 0,69.4 -25.1,127 -56.1,127 -31,0 -56.1,-56.1 -56.1,-127 0,-69.3 25.1,-126.9 56.1,-126.9" style="fill:#ffcc3d;fill-opacity:1;fill-rule:nonzero;stroke:none" id="path60"/>
      <path d="m 21572.6,22818.7 c 576.5,0 1043.8,-467.3 1043.8,-1043.8 0,-576.5 -467.3,-1043.8 -1043.8,-1043.8 -576.4,0 -1043.8,467.3 -1043.8,1043.8 0,576.5 467.4,1043.8 1043.8,1043.8" style="fill:#772d19;fill-opacity:1;fill-rule:nonzero;stroke:none" id="path62"/>
      <path d="m 21572.6,22688.8 c 504.7,0 913.9,-409.2 913.9,-913.9 0,-504.7 -409.2,-913.9 -913.9,-913.9 -504.7,0 -913.8,409.2 -913.8,913.9 0,504.7 409.1,913.9 913.8,913.9" style="fill:#f83822;fill-opacity:1;fill-rule:nonzero;stroke:none" id="path64"/>
      <path d="m 21572.6,20965.8 c 138.8,0 268.7,35.5 382.4,96 36.9,20.7 60.5,53.1 67.9,96 5.9,42.8 -7.4,81.2 -36.9,110.7 l -320.4,320.4 c -50.2,50.2 -134.3,50.2 -184.5,0 l -320.4,-320.4 c -29.5,-29.5 -42.8,-69.4 -36.9,-110.7 5.9,-42.9 29.5,-75.3 67.9,-96 113.7,-62 245.1,-96 382.4,-96 z m -184.5,900.6 -320.4,320.4 c -29.5,29.5 -69.4,42.8 -110.7,36.9 -42.8,-5.9 -75.3,-29.5 -96,-67.9 -62,-113.7 -95.9,-245.1 -95.9,-382.4 0,-138.8 35.4,-268.7 95.9,-382.4 20.7,-36.9 53.2,-60.5 96,-67.9 42.8,-5.9 81.2,7.4 110.7,36.9 l 320.4,320.4 c 50.2,50.2 50.2,134.4 0,184.5 z m 897.6,-475.4 c 62,113.7 96,245.1 96,382.4 0,138.8 -35.5,268.7 -96,382.4 -20.7,36.9 -53.1,60.5 -96,67.9 -42.8,5.9 -81.2,-7.4 -110.7,-36.9 l -320.4,-320.4 c -50.2,-50.2 -50.2,-134.3 0,-184.5 l 320.4,-320.4 c 29.5,-29.5 69.4,-42.8 110.7,-36.9 42.9,5.9 75.3,29.5 96,67.9 z m -329.2,1095.5 c -113.7,62 -245.1,96 -382.4,96 -138.8,0 -268.7,-35.5 -382.4,-96 -36.9,-20.7 -60.5,-53.2 -67.9,-96 -5.9,-42.8 7.4,-81.2 36.9,-110.7 l 320.4,-320.4 c 50.2,-50.2 134.3,-50.2 184.5,0 l 320.4,320.4 c 29.5,29.5 42.8,69.4 36.9,110.7 -5.9,42.8 -29.5,75.3 -67.9,96 h 1.5" style="fill:#d42411;fill-opacity:1;fill-rule:nonzero;stroke:none" id="path66"/>
      <path d="m 21705.5,22220.7 c -28.1,11.9 -22.2,70.9 14.8,134.4 35.4,63.5 88.5,104.8 116.6,93 28,-11.8 22.1,-70.9 -14.8,-134.3 -35.4,-63.5 -88.6,-104.9 -116.6,-93.1 z m -267.2,0 c 28,11.9 22.1,70.9 -14.8,134.4 -35.4,63.5 -88.6,104.8 -116.6,93 -28.1,-11.8 -22.2,-70.9 14.7,-134.3 35.5,-63.5 88.6,-104.9 116.7,-93.1 z m 267.2,-885.8 c -28.1,-11.8 -22.2,-70.8 14.8,-134.3 35.4,-63.5 88.5,-104.8 116.6,-93 28,11.8 22.1,70.8 -14.8,134.3 -35.4,63.5 -88.6,104.8 -116.6,93 z m -267.2,0 c 28,-11.8 22.1,-70.8 -14.8,-134.3 -35.4,-63.5 -88.6,-104.8 -116.6,-93 -28.1,11.8 -22.2,70.8 14.7,134.3 35.5,63.5 88.6,104.8 116.7,93 z m 132.8,-31 c 31,0 56.1,-56.1 56.1,-126.9 0,-69.4 -25.1,-127 -56.1,-127 -31,0 -56.1,56.1 -56.1,127 0,69.3 25.1,126.9 56.1,126.9 z m -442.9,606.8 c -11.8,-28 -70.8,-22.1 -134.3,14.8 -63.5,35.4 -104.8,88.6 -93,116.6 11.8,28.1 70.8,22.2 134.3,-14.8 63.5,-35.4 104.8,-88.5 93,-116.6 z m 0,-267.2 c -11.8,28 -70.8,22.1 -134.3,-14.8 -63.5,-35.4 -104.8,-88.6 -93,-116.6 11.8,-28.1 70.8,-22.2 134.3,14.8 63.5,35.4 104.8,88.5 93,116.6 z m 885.9,267.2 c 11.8,-28 70.8,-22.1 134.3,14.8 63.5,35.4 104.8,88.6 93,116.6 -11.8,28.1 -70.9,22.2 -134.3,-14.8 -63.5,-35.4 -104.9,-88.5 -93,-116.6 z m 0,-267.2 c 11.8,28 70.8,22.1 134.3,-14.8 63.5,-35.4 104.8,-88.6 93,-116.6 -11.8,-28.1 -70.9,-22.2 -134.3,14.8 -63.5,35.4 -104.9,88.5 -93,116.6 z m 31,132.9 c 0,31 56.1,56.1 126.9,56.1 69.4,0 127,-25.1 127,-56.1 0,-31 -56.1,-56.1 -127,-56.1 -69.4,0 -126.9,25.1 -126.9,56.1 z m -946.4,0 c 0,31 -56.1,56.1 -127,56.1 -69.3,0 -126.9,-25.1 -126.9,-56.1 0,-31 56.1,-56.1 126.9,-56.1 69.4,0 127,25.1 127,56.1 z m 473.9,473.9 c 31,0 56.1,56.1 56.1,126.9 0,69.4 -25.1,127 -56.1,127 -31,0 -56.1,-56.1 -56.1,-127 0,-69.4 25.1,-126.9 56.1,-126.9" style="fill:#ffcc3d;fill-opacity:1;fill-rule:nonzero;stroke:none" id="path68"/>
      <path d="m 29257.1,22739 c 576.5,0 1043.8,-467.4 1043.8,-1043.8 0,-576.5 -467.3,-1043.8 -1043.8,-1043.8 -576.5,0 -1043.8,467.3 -1043.8,1043.8 0,576.4 467.3,1043.8 1043.8,1043.8" style="fill:#772d19;fill-opacity:1;fill-rule:nonzero;stroke:none" id="path70"/>
      <path d="m 29257.1,22609 c 504.7,0 913.9,-409.1 913.9,-913.8 0,-504.8 -409.2,-913.9 -913.9,-913.9 -504.7,0 -913.9,409.1 -913.9,913.9 0,504.7 409.2,913.8 913.9,913.8" style="fill:#f83822;fill-opacity:1;fill-rule:nonzero;stroke:none" id="path72"/>
      <path d="m 29255.6,20887.6 c 138.8,0 268.7,35.4 382.4,95.9 36.9,20.7 60.5,53.2 67.9,96 5.9,42.8 -7.4,81.2 -36.9,110.7 l -320.4,320.4 c -50.2,50.2 -134.3,50.2 -184.5,0 l -320.4,-320.4 c -29.5,-29.5 -42.8,-69.3 -36.9,-110.7 5.9,-42.8 29.5,-75.3 67.9,-96 113.7,-62 245.1,-95.9 382.4,-95.9 z m -184.5,900.6 -320.4,320.3 c -29.5,29.6 -69.4,42.9 -110.7,37 -42.8,-6 -75.3,-29.6 -96,-68 -62,-113.6 -96,-245 -96,-382.3 0,-138.8 35.5,-268.7 96,-382.4 20.7,-36.9 53.2,-60.5 96,-67.9 42.8,-5.9 81.2,7.4 110.7,36.9 l 320.4,320.4 c 50.2,50.1 50.2,134.3 0,184.5 z m 897.6,-475.4 c 62,113.7 96,245.1 96,382.4 0,138.7 -35.5,268.7 -96,382.3 -20.7,36.9 -53.1,60.6 -96,68 -42.8,5.9 -81.2,-7.4 -110.7,-37 l -320.4,-320.3 c -50.2,-50.2 -50.2,-134.4 0,-184.6 l 320.4,-320.3 c 29.5,-29.6 69.4,-42.9 110.7,-37 42.9,6 75.3,29.6 96,68 z m -329.2,1095.4 c -113.7,62 -245.1,96 -382.4,96 -138.8,0 -268.7,-35.4 -382.4,-96 -36.9,-20.6 -60.5,-53.1 -67.9,-95.9 -5.9,-42.8 7.4,-81.2 36.9,-110.7 l 320.4,-320.4 c 50.2,-50.2 134.3,-50.2 184.5,0 l 320.4,320.4 c 29.5,29.5 42.8,69.3 36.9,110.7 -5.9,42.8 -29.5,75.3 -67.9,95.9 h 1.5" style="fill:#d42411;fill-opacity:1;fill-rule:nonzero;stroke:none" id="path74"/>
      <path d="m 29390,22141 c -28.1,11.8 -22.2,70.9 14.7,134.4 35.5,63.5 88.6,104.8 116.7,93 28,-11.8 22.1,-70.9 -14.8,-134.4 -35.4,-63.4 -88.6,-104.8 -116.6,-93 z m -267.3,0 c 28.1,11.8 22.2,70.9 -14.7,134.4 -35.5,63.5 -88.6,104.8 -116.6,93 -28.1,-11.8 -22.2,-70.9 14.7,-134.4 35.4,-63.4 88.6,-104.8 116.6,-93 z m 267.3,-885.8 c -28.1,-11.8 -22.2,-70.9 14.7,-134.3 35.5,-63.5 88.6,-104.9 116.7,-93.1 28,11.9 22.1,70.9 -14.8,134.4 -35.4,63.5 -88.6,104.8 -116.6,93 z m -267.3,0 c 28.1,-11.8 22.2,-70.9 -14.7,-134.3 -35.5,-63.5 -88.6,-104.9 -116.6,-93.1 -28.1,11.9 -22.2,70.9 14.7,134.4 35.4,63.5 88.6,104.8 116.6,93 z m 132.9,-31 c 31,0 56.1,-56.1 56.1,-127 0,-69.4 -25.1,-126.9 -56.1,-126.9 -31,0 -56.1,56.1 -56.1,126.9 0,69.4 25.1,127 56.1,127 z m -442.9,606.8 c -11.8,-28.1 -70.9,-22.2 -134.3,14.7 -63.5,35.5 -104.9,88.6 -93.1,116.7 11.9,28 70.9,22.1 134.4,-14.8 63.5,-35.4 104.8,-88.6 93,-116.6 z m 0,-267.2 c -11.8,28 -70.9,22.1 -134.3,-14.8 -63.5,-35.4 -104.9,-88.6 -93.1,-116.6 11.9,-28.1 70.9,-22.2 134.4,14.7 63.5,35.5 104.8,88.6 93,116.7 z m 885.8,267.2 c 11.8,-28.1 70.9,-22.2 134.4,14.7 63.5,35.5 104.8,88.6 93,116.7 -11.8,28 -70.9,22.1 -134.4,-14.8 -63.4,-35.4 -104.8,-88.6 -93,-116.6 z m 0,-267.2 c 11.8,28 70.9,22.1 134.4,-14.8 63.5,-35.4 104.8,-88.6 93,-116.6 -11.8,-28.1 -70.9,-22.2 -134.4,14.7 -63.4,35.5 -104.8,88.6 -93,116.7 z m 31,132.8 c 0,31 56.1,56.1 127,56.1 69.4,0 127,-25.1 127,-56.1 0,-31 -56.1,-56.1 -127,-56.1 -69.4,0 -127,25.1 -127,56.1 z m -946.3,0 c 0,31 -56.1,56.1 -127,56.1 -69.4,0 -127,-25.1 -127,-56.1 0,-31 56.1,-56.1 127,-56.1 69.4,0 127,25.1 127,56.1 z m 473.9,474 c 31,0 56.1,56.1 56.1,126.9 0,69.4 -25.1,127 -56.1,127 -31,0 -56.1,-56.1 -56.1,-127 0,-69.4 25.1,-126.9 56.1,-126.9" style="fill:#ffcc3d;fill-opacity:1;fill-rule:nonzero;stroke:none" id="path76"/>
      <path d="m 30897.3,19561.8 c 576.5,0 1043.8,-467.3 1043.8,-1043.8 0,-576.4 -467.3,-1043.8 -1043.8,-1043.8 -576.4,0 -1043.8,467.4 -1043.8,1043.8 0,576.5 467.4,1043.8 1043.8,1043.8" style="fill:#772d19;fill-opacity:1;fill-rule:nonzero;stroke:none" id="path78"/>
      <path d="m 30897.3,19431.9 c 504.7,0 913.9,-409.2 913.9,-913.9 0,-504.7 -409.2,-913.8 -913.9,-913.8 -504.7,0 -913.8,409.1 -913.8,913.8 0,504.7 409.1,913.9 913.8,913.9" style="fill:#f83822;fill-opacity:1;fill-rule:nonzero;stroke:none" id="path80"/>
      <path d="m 30895.9,17710.5 c 138.7,0 268.7,35.4 382.3,95.9 36.9,20.7 60.6,53.2 67.9,96 6,42.8 -7.3,81.2 -36.9,110.7 l -320.3,320.4 c -50.2,50.2 -134.4,50.2 -184.6,0 l -320.3,-320.4 c -29.6,-29.5 -42.9,-69.4 -37,-110.7 5.9,-42.8 29.6,-75.3 68,-96 113.6,-62 245,-95.9 382.3,-95.9 z m -184.6,900.5 -320.4,320.4 c -29.5,29.5 -69.4,42.8 -110.7,36.9 -42.8,-5.9 -75.3,-29.5 -95.9,-67.9 -62.1,-113.7 -96,-245.1 -96,-382.4 0,-138.7 35.4,-268.7 96,-382.4 20.6,-36.9 53.1,-60.5 95.9,-67.9 42.8,-5.9 81.2,7.4 110.7,36.9 l 320.4,320.4 c 50.2,50.2 50.2,134.4 0,184.6 z m 897.6,-475.4 c 62.1,113.7 96,245.1 96,382.4 0,138.8 -35.4,268.7 -96,382.4 -20.6,36.9 -53.1,60.5 -95.9,67.9 -42.8,5.9 -81.2,-7.4 -110.7,-36.9 l -320.4,-320.4 c -50.2,-50.2 -50.2,-134.3 0,-184.5 l 320.4,-320.4 c 29.5,-29.5 69.3,-42.8 110.7,-36.9 42.8,5.9 75.3,29.5 95.9,67.9 z m -329.2,1095.5 c -113.7,62 -243.6,96 -382.4,96 -138.7,0 -268.7,-35.5 -382.3,-96 -37,-20.7 -60.6,-53.1 -68,-95.9 -5.9,-42.9 7.4,-81.2 37,-110.8 l 320.3,-320.4 c 50.2,-50.1 134.4,-50.1 184.6,0 l 320.3,320.4 c 29.6,29.6 42.9,69.4 36.9,110.8 -5.9,42.8 -29.5,75.2 -67.9,95.9 h 1.5" style="fill:#d42411;fill-opacity:1;fill-rule:nonzero;stroke:none" id="path82"/>
      <path d="m 31030.2,18963.9 c -28,11.8 -22.1,70.9 14.8,134.3 35.4,63.5 88.5,104.9 116.6,93 28.1,-11.8 22.1,-70.8 -14.8,-134.3 -35.4,-63.5 -88.5,-104.8 -116.6,-93 z m -267.2,0 c 28,11.8 22.1,70.9 -14.8,134.3 -35.4,63.5 -88.6,104.9 -116.6,93 -28.1,-11.8 -22.2,-70.8 14.8,-134.3 35.4,-63.5 88.5,-104.8 116.6,-93 z m 267.2,-885.8 c -28,-11.8 -22.1,-70.9 14.8,-134.4 35.4,-63.5 88.5,-104.8 116.6,-93 28.1,11.8 22.1,70.9 -14.8,134.4 -35.4,63.4 -88.5,104.8 -116.6,93 z m -267.2,0 c 28,-11.8 22.1,-70.9 -14.8,-134.4 -35.4,-63.5 -88.6,-104.8 -116.6,-93 -28.1,11.8 -22.2,70.9 14.8,134.4 35.4,63.4 88.5,104.8 116.6,93 z m 132.9,-31 c 31,0 56.1,-56.1 56.1,-127 0,-69.4 -25.1,-127 -56.1,-127 -31.1,0 -56.1,56.1 -56.1,127 0,69.4 25,127 56.1,127 z m -443,606.8 c -11.8,-28.1 -70.8,-22.2 -134.3,14.7 -63.5,35.4 -104.8,88.6 -93,116.6 11.8,28.1 70.9,22.2 134.3,-14.7 63.5,-35.4 104.9,-88.6 93,-116.6 z m 0,-267.3 c -11.8,28.1 -70.8,22.2 -134.3,-14.7 -63.5,-35.5 -104.8,-88.6 -93,-116.7 11.8,-28 70.9,-22.1 134.3,14.8 63.5,35.4 104.9,88.6 93,116.6 z m 885.9,267.3 c 11.8,-28.1 70.8,-22.2 134.3,14.7 63.5,35.4 104.8,88.6 93,116.6 -11.8,28.1 -70.8,22.2 -134.3,-14.7 -63.5,-35.4 -104.8,-88.6 -93,-116.6 z m 0,-267.3 c 11.8,28.1 70.8,22.2 134.3,-14.7 63.5,-35.5 104.8,-88.6 93,-116.7 -11.8,-28 -70.8,-22.1 -134.3,14.8 -63.5,35.4 -104.8,88.6 -93,116.6 z m 31,132.9 c 0,31 56.1,56.1 126.9,56.1 69.4,0 127,-25.1 127,-56.1 0,-31 -56.1,-56.1 -127,-56.1 -69.4,0 -126.9,25.1 -126.9,56.1 z m -946.4,0 c 0,31 -56.1,56.1 -126.9,56.1 -69.4,0 -127,-25.1 -127,-56.1 0,-31 56.1,-56.1 127,-56.1 69.3,0 126.9,25.1 126.9,56.1 z m 473.9,473.9 c 31,0 56.1,56.1 56.1,127 0,69.4 -25.1,126.9 -56.1,126.9 -31,0 -56.1,-56.1 -56.1,-126.9 0,-69.4 25.1,-127 56.1,-127" style="fill:#ffcc3d;fill-opacity:1;fill-rule:nonzero;stroke:none" id="path84"/>
      <path d="m 32410.6,22832 c 576.5,0 1043.8,-467.4 1043.8,-1043.8 0,-576.5 -467.3,-1043.8 -1043.8,-1043.8 -576.5,0 -1043.8,467.3 -1043.8,1043.8 0,576.4 467.3,1043.8 1043.8,1043.8" style="fill:#772d19;fill-opacity:1;fill-rule:nonzero;stroke:none" id="path86"/>
      <path d="m 32410.6,22702 c 504.7,0 913.9,-409.1 913.9,-913.8 0,-504.7 -409.2,-913.9 -913.9,-913.9 -504.7,0 -913.9,409.2 -913.9,913.9 0,504.7 409.2,913.8 913.9,913.8" style="fill:#f83822;fill-opacity:1;fill-rule:nonzero;stroke:none" id="path88"/>
      <path d="m 32410.6,20979.1 c 138.8,0 268.7,35.5 382.4,96 36.9,20.7 60.5,53.1 67.9,95.9 5.9,42.9 -7.4,81.3 -36.9,110.8 l -320.4,320.4 c -50.2,50.1 -134.3,50.1 -184.5,0 l -320.4,-320.4 c -29.5,-29.5 -42.8,-69.4 -36.9,-110.8 5.9,-42.8 29.5,-75.2 67.9,-95.9 113.7,-62 245.1,-96 382.4,-96 z m -184.5,900.6 -320.4,320.4 c -29.5,29.5 -69.4,42.8 -110.7,36.9 -42.9,-5.9 -75.3,-29.5 -96,-67.9 -62,-113.7 -96,-245.1 -96,-382.4 0,-138.8 35.5,-268.7 96,-382.4 20.7,-36.9 53.1,-60.5 96,-67.9 42.8,-5.9 81.2,7.4 110.7,36.9 l 320.4,320.4 c 50.2,50.2 50.2,134.3 0,184.5 z m 897.6,-475.4 c 62,113.7 96,245.1 96,382.4 0,138.8 -35.5,268.7 -96,382.4 -20.7,36.9 -53.2,60.5 -96,67.9 -42.8,5.9 -81.2,-7.4 -110.7,-36.9 l -320.4,-320.4 c -50.2,-50.2 -50.2,-134.3 0,-184.5 l 320.4,-320.4 c 29.5,-29.5 69.4,-42.8 110.7,-36.9 42.8,5.9 75.3,29.5 96,67.9 z m -329.2,1095.5 c -113.7,62 -245.1,95.9 -382.4,95.9 -138.8,0 -268.7,-35.4 -382.4,-95.9 -36.9,-20.7 -60.5,-53.2 -67.9,-96 -5.9,-42.8 7.4,-81.2 36.9,-110.7 l 320.4,-320.4 c 50.2,-50.2 134.3,-50.2 184.5,0 l 320.4,320.4 c 29.5,29.5 42.8,69.4 36.9,110.7 -5.9,42.8 -29.5,75.3 -67.9,96 h 1.5" style="fill:#d42411;fill-opacity:1;fill-rule:nonzero;stroke:none" id="path90"/>
      <path d="m 32543.5,22234 c -28.1,11.8 -22.2,70.9 14.7,134.4 35.5,63.5 88.6,104.8 116.7,93 28,-11.8 22.1,-70.9 -14.8,-134.4 -35.4,-63.4 -88.6,-104.8 -116.6,-93 z m -267.2,0 c 28,11.8 22.1,70.9 -14.8,134.4 -35.4,63.5 -88.6,104.8 -116.6,93 -28.1,-11.8 -22.2,-70.9 14.7,-134.4 35.5,-63.4 88.6,-104.8 116.7,-93 z m 267.2,-885.8 c -28.1,-11.8 -22.2,-70.9 14.7,-134.3 35.5,-63.5 88.6,-104.9 116.7,-93 28,11.8 22.1,70.8 -14.8,134.3 -35.4,63.5 -88.6,104.8 -116.6,93 z m -267.2,0 c 28,-11.8 22.1,-70.9 -14.8,-134.3 -35.4,-63.5 -88.6,-104.9 -116.6,-93 -28.1,11.8 -22.2,70.8 14.7,134.3 35.5,63.5 88.6,104.8 116.7,93 z m 132.8,-31 c 31,0 56.1,-56.1 56.1,-127 0,-69.3 -25.1,-126.9 -56.1,-126.9 -31,0 -56.1,56.1 -56.1,126.9 0,69.4 25.1,127 56.1,127 z m -442.9,606.8 c -11.8,-28.1 -70.8,-22.1 -134.3,14.8 -63.5,35.4 -104.9,88.5 -93,116.6 11.8,28 70.8,22.1 134.3,-14.8 63.5,-35.4 104.8,-88.6 93,-116.6 z m 0,-267.2 c -11.8,28 -70.8,22.1 -134.3,-14.8 -63.5,-35.4 -104.9,-88.6 -93,-116.6 11.8,-28.1 70.8,-22.2 134.3,14.7 63.5,35.5 104.8,88.6 93,116.7 z m 885.8,267.2 c 11.9,-28.1 70.9,-22.1 134.4,14.8 63.5,35.4 104.8,88.5 93,116.6 -11.8,28 -70.9,22.1 -134.3,-14.8 -63.5,-35.4 -104.9,-88.6 -93.1,-116.6 z m 0,-267.2 c 11.9,28 70.9,22.1 134.4,-14.8 63.5,-35.4 104.8,-88.6 93,-116.6 -11.8,-28.1 -70.9,-22.2 -134.3,14.7 -63.5,35.5 -104.9,88.6 -93.1,116.7 z m 31,132.8 c 0,31 56.1,56.1 127,56.1 69.4,0 127,-25.1 127,-56.1 0,-31 -56.1,-56.1 -127,-56.1 -69.4,0 -127,25.1 -127,56.1 z m -946.3,0 c 0,31 -56.1,56.1 -127,56.1 -69.4,0 -126.9,-25.1 -126.9,-56.1 0,-31 56.1,-56.1 126.9,-56.1 69.4,0 127,25.1 127,56.1 z m 473.9,474 c 31,0 56.1,56.1 56.1,126.9 0,69.4 -25.1,127 -56.1,127 -31,0 -56.1,-56.1 -56.1,-127 0,-69.4 25.1,-126.9 56.1,-126.9" style="fill:#ffcc3d;fill-opacity:1;fill-rule:nonzero;stroke:none" id="path92"/>
      <path d="m 23859.5,17236.5 c 152.1,-348.4 403.1,-500.4 642.2,-510.8 106.3,-4.4 211.1,19.2 302.7,65 93,47.2 172.7,116.6 233.3,205.2 134.3,199.3 160.9,491.6 -28.1,820.9 l -32.5,54.6 -56.1,-29.5 c -59,-31.1 -116.6,-59.1 -172.7,-85.7 l -82.7,-38.4 c -7.4,29.6 -14.8,60.6 -23.6,93 -17.7,63.5 -39.9,128.5 -66.5,186.1 -109.2,239.1 -386.8,103.3 -420.7,85.6 -1.5,0 -318.9,-146.2 -184.6,-391.2 31,-54.7 69.4,-110.8 109.3,-162.4 20.7,-26.6 39.9,-51.7 60.5,-73.9 l -82.7,-45.7 c -51.6,-28.1 -107.7,-56.1 -166.8,-87.1 l -57.6,-28.1 25.1,-57.6 h 1.5" style="fill:#772d19;fill-opacity:1;fill-rule:nonzero;stroke:none" id="path94"/>
      <path d="m 24507.6,16860.1 c -180.1,8.8 -370.5,119.6 -499,373.5 38.4,19.2 76.8,39.9 112.2,59 54.6,29.6 107.8,59.1 158,88.6 l 70.9,41.4 -56.1,62 c -32.5,35.4 -70.9,81.2 -107.8,128.4 -36.9,47.3 -72.4,97.5 -98.9,146.2 -65,118.1 124,205.2 125.5,205.2 l 2.9,1.5 c 0,0 181.6,100.4 237.7,-23.7 23.6,-50.2 42.8,-107.7 59.1,-165.3 16.2,-57.6 29.5,-115.2 38.3,-163.9 l 16.3,-81.2 76.8,32.5 c 51.6,22.1 106.3,47.2 160.9,72.3 38.4,17.8 76.8,36.9 118.1,57.6 127,-253.9 103.3,-473.9 2.9,-623 -47.2,-69.4 -109.2,-124 -181.5,-160.9 -72.4,-36.9 -153.6,-54.7 -237.7,-50.2 h 1.4" style="fill:#f4ebe0;fill-opacity:1;fill-rule:nonzero;stroke:none" id="path96"/>
      <path d="m 21104.6,18605.1 c -152.1,-348.4 -403,-500.5 -642.2,-510.8 -106.3,-4.4 -211.1,19.2 -302.7,65 -93,47.2 -172.7,116.6 -233.2,205.2 -134.4,199.3 -160.9,491.6 28,820.8 l 32.5,54.7 56.1,-29.6 c 59.1,-31 116.6,-59 172.7,-85.6 l 82.7,-38.4 c 7.4,29.6 14.8,60.6 23.6,93 17.8,63.5 39.9,128.5 66.5,186.1 109.2,239.1 386.8,103.3 420.7,85.6 1.5,0 318.9,-146.2 184.6,-391.3 -31,-54.6 -69.4,-110.7 -109.3,-162.3 -20.6,-26.6 -39.8,-51.7 -60.5,-73.9 l 82.7,-45.7 c 51.7,-28.1 107.8,-56.1 166.8,-85.7 l 57.6,-28 -25.1,-57.6 -1.5,-1.5" style="fill:#772d19;fill-opacity:1;fill-rule:nonzero;stroke:none" id="path98"/>
      <path d="m 20456.5,18228.7 c 180.1,8.8 370.6,119.5 499,373.5 -38.4,19.2 -76.8,39.8 -112.2,59 -54.6,29.6 -107.8,59.1 -158,88.6 l -70.8,41.4 56.1,62 c 32.4,35.4 70.8,81.2 109.2,128.4 36.9,47.3 72.4,97.4 98.9,146.2 65,118.1 -124,205.2 -125.5,205.2 l -2.9,1.5 c 0,0 -181.6,100.3 -237.7,-23.7 -23.6,-50.2 -42.8,-107.7 -59.1,-165.3 -16.2,-57.6 -29.5,-115.2 -38.3,-163.9 l -16.3,-81.2 -76.8,32.5 c -51.6,22.1 -106.3,47.2 -160.9,72.3 -38.4,17.7 -76.8,36.9 -118.1,57.6 -127,-253.9 -103.3,-473.9 -2.9,-623 47.2,-69.4 109.2,-124 181.5,-160.9 72.4,-37 153.6,-54.7 237.7,-50.2 h -2.9" style="fill:#f4ebe0;fill-opacity:1;fill-rule:nonzero;stroke:none" id="path100"/>
      <path d="m 33219.7,19366.9 c -152.1,-348.4 -403.1,-500.4 -642.3,-510.8 -106.3,-4.4 -211.1,19.2 -302.6,65 -93,47.2 -172.8,116.6 -233.3,205.2 -134.3,199.3 -160.9,491.6 28.1,820.8 l 32.4,54.7 56.1,-29.6 c 59.1,-31 116.7,-59 172.8,-85.6 l 82.7,-38.4 c 7.3,29.6 14.7,60.6 23.6,93 17.7,63.5 39.8,128.5 66.4,186.1 109.3,239.1 386.8,103.3 420.8,85.6 1.5,0 318.9,-146.2 184.5,-391.2 -31,-54.7 -69.4,-110.8 -109.2,-162.4 -20.7,-26.6 -39.9,-51.7 -60.6,-73.9 l 82.7,-45.7 c 51.7,-28.1 107.8,-56.1 166.8,-85.7 l 57.6,-28 -25.1,-57.6 -1.4,-1.5" style="fill:#772d19;fill-opacity:1;fill-rule:nonzero;stroke:none" id="path102"/>
      <path d="m 32571.5,18990.5 c 180.1,8.8 370.6,119.5 499,373.5 -38.3,19.2 -76.7,39.8 -112.2,59 -54.6,29.6 -107.7,59.1 -157.9,88.6 l -70.9,41.4 56.1,62 c 32.5,35.4 70.9,81.2 109.2,128.4 37,47.2 72.4,97.4 99,146.2 64.9,118.1 -124,205.2 -125.5,205.2 l -3,1.5 c 0,0 -181.6,100.4 -237.7,-23.7 -23.6,-50.2 -42.8,-107.7 -59,-165.3 -16.3,-57.6 -29.6,-115.2 -38.4,-163.9 l -16.2,-81.2 -76.8,32.5 c -51.7,22.1 -106.3,47.2 -160.9,72.3 -38.4,17.8 -76.8,36.9 -118.2,57.6 -126.9,-253.9 -103.3,-473.9 -2.9,-623 47.2,-69.4 109.2,-124 181.6,-160.9 72.3,-36.9 153.5,-54.7 237.7,-50.2 h -3" style="fill:#f4ebe0;fill-opacity:1;fill-rule:nonzero;stroke:none" id="path104"/>
      <path d="m 19879.2,20326.6 c 118.1,0 225.9,48.7 304.2,125.5 v 0 c 78.2,78.2 125.5,186 125.5,304.1 0,118.1 -48.8,225.9 -125.5,304.1 -78.3,78.3 -186.1,125.5 -304.2,125.5 -119.6,0 -225.9,-48.7 -304.1,-125.5 -78.2,-78.2 -125.5,-186 -125.5,-304.1 0,-119.6 48.7,-225.9 125.5,-304.1 78.2,-78.3 186,-125.5 304.1,-125.5" style="fill:#772d19;fill-opacity:1;fill-rule:nonzero;stroke:none" id="path106"/>
      <path d="m 20102.2,20533.3 c -57.6,-57.6 -135.9,-93.1 -223,-93.1 -87.1,0 -166.8,35.5 -222.9,93.1 -57.6,57.5 -93,135.8 -93,224.4 0,87.1 35.4,166.8 93,222.9 57.6,57.6 135.8,93 222.9,93 87.1,0 166.9,-35.4 223,-93 57.5,-57.6 93,-135.8 93,-222.9 0,-87.1 -35.5,-166.9 -93,-223 v 0 -1.4" style="fill:#37b34a;fill-opacity:1;fill-rule:nonzero;stroke:none" id="path108"/>
      <path d="m 19879.2,20549.5 c 57.6,0 109.3,23.6 146.2,60.5 36.9,36.9 60.5,90.1 60.5,146.2 0,57.6 -23.6,109.2 -60.5,146.2 -36.9,38.3 -90.1,60.5 -146.2,60.5 -57.5,0 -109.2,-23.6 -146.1,-60.5 v 0 c -36.9,-37 -60.6,-90.1 -60.6,-146.2 0,-57.6 23.7,-109.3 60.6,-146.2 38.4,-36.9 90,-60.5 146.1,-60.5" style="fill:#772d19;fill-opacity:1;fill-rule:nonzero;stroke:none" id="path110"/>
      <path d="m 19945.7,20691.2 c -16.3,-16.2 -39.9,-28 -66.5,-28 -26.5,0 -48.7,10.3 -66.4,26.6 -16.2,16.2 -26.6,39.8 -26.6,66.4 0,26.6 10.4,48.7 26.6,66.4 16.2,16.3 39.9,26.6 66.4,26.6 25.1,0 48.8,-10.3 66.5,-28 16.2,-16.3 28,-39.9 28,-66.5 0,-25.1 -10.3,-48.7 -28,-66.4 v 2.9" style="fill:#ffcc3d;fill-opacity:1;fill-rule:nonzero;stroke:none" id="path112"/>
      <path d="m 17781.3,19598.7 c 118.1,0 225.9,48.7 304.2,125.5 v 0 c 78.2,78.3 125.4,186 125.4,304.1 0,118.2 -48.7,225.9 -125.4,304.2 -78.3,78.2 -186.1,125.5 -304.2,125.5 -118.1,0 -225.9,-48.7 -304.1,-125.5 -78.3,-78.3 -125.5,-186 -125.5,-304.2 0,-119.5 48.7,-225.8 125.5,-304.1 78.2,-78.2 186,-125.5 304.1,-125.5" style="fill:#772d19;fill-opacity:1;fill-rule:nonzero;stroke:none" id="path114"/>
      <path d="m 18004.3,19805.4 c -57.6,-57.6 -135.9,-93 -223,-93 -87.1,0 -166.8,35.4 -222.9,93 -57.6,57.6 -93,135.8 -93,224.4 0,87.1 35.4,166.9 93,222.9 57.6,57.6 135.8,93.1 222.9,93.1 87.1,0 166.8,-35.5 223,-93.1 57.5,-57.5 93,-135.8 93,-222.9 0,-87.1 -35.5,-166.8 -93,-222.9 v 0 -1.5" style="fill:#37b34a;fill-opacity:1;fill-rule:nonzero;stroke:none" id="path116"/>
      <path d="m 17781.3,19821.7 c 57.6,0 109.3,23.6 146.2,60.5 36.9,36.9 60.5,90 60.5,146.1 0,57.6 -23.6,109.3 -60.5,146.2 -36.9,38.4 -90.1,60.5 -146.2,60.5 -57.6,0 -109.2,-23.6 -146.1,-60.5 v 0 c -36.9,-36.9 -60.6,-90.1 -60.6,-146.2 0,-57.5 23.7,-109.2 60.6,-146.1 38.3,-36.9 90,-60.5 146.1,-60.5" style="fill:#772d19;fill-opacity:1;fill-rule:nonzero;stroke:none" id="path118"/>
      <path d="m 17846.3,19963.4 c -16.3,-16.3 -39.9,-28.1 -66.5,-28.1 -26.5,0 -48.7,10.4 -66.4,26.6 -16.2,16.2 -26.6,39.9 -26.6,66.4 0,26.6 10.4,48.8 26.6,66.5 16.2,16.2 39.9,26.6 66.4,26.6 25.1,0 48.8,-10.4 66.5,-28.1 16.2,-16.2 28,-39.9 28,-66.4 0,-25.1 -10.3,-48.8 -28,-66.5 v 3" style="fill:#ffcc3d;fill-opacity:1;fill-rule:nonzero;stroke:none" id="path120"/>
      <path d="m 21261.1,19421.6 c 118.1,0 225.9,48.7 304.1,125.5 v 0 c 78.3,78.2 125.5,186 125.5,304.1 0,118.1 -48.7,225.9 -125.5,304.1 -78.2,78.3 -186,125.5 -304.1,125.5 -119.6,0 -225.9,-48.7 -304.1,-125.5 -78.3,-78.2 -125.5,-186 -125.5,-304.1 0,-118.1 48.7,-225.9 125.5,-304.1 78.2,-78.3 186,-125.5 304.1,-125.5" style="fill:#772d19;fill-opacity:1;fill-rule:nonzero;stroke:none" id="path122"/>
      <path d="m 21485.5,19628.2 c -57.6,-57.5 -135.8,-93 -222.9,-93 -87.1,0 -166.8,35.5 -222.9,93 -57.6,57.6 -93.1,135.9 -93.1,224.5 0,87.1 35.5,166.8 93.1,222.9 57.5,57.6 135.8,93 222.9,93 87.1,0 166.8,-35.4 222.9,-93 57.6,-57.6 93,-135.8 93,-222.9 0,-87.1 -35.4,-166.9 -93,-223 v 0 -1.5" style="fill:#37b34a;fill-opacity:1;fill-rule:nonzero;stroke:none" id="path124"/>
      <path d="m 21261.1,19643 c 57.6,0 109.3,23.6 146.2,60.5 36.9,37 60.5,90.1 60.5,146.2 0,57.6 -23.6,109.3 -60.5,146.2 -36.9,38.4 -90.1,60.5 -146.2,60.5 -57.6,0 -109.2,-23.6 -146.1,-60.5 v 0 c -37,-36.9 -60.6,-90.1 -60.6,-146.2 0,-57.6 23.6,-109.2 60.6,-146.2 38.3,-36.9 90,-60.5 146.1,-60.5" style="fill:#772d19;fill-opacity:1;fill-rule:nonzero;stroke:none" id="path126"/>
      <path d="m 21327.5,19784.8 c -16.2,-16.3 -39.8,-28.1 -66.4,-28.1 -26.6,0 -48.7,10.3 -66.4,26.6 -16.3,16.2 -26.6,39.8 -26.6,66.4 0,26.6 10.3,48.7 26.6,66.4 16.2,16.3 39.8,26.6 66.4,26.6 25.1,0 48.7,-10.3 66.4,-28 16.3,-16.3 28.1,-39.9 28.1,-66.5 0,-25.1 -10.3,-48.7 -28.1,-66.4 v 3" style="fill:#ffcc3d;fill-opacity:1;fill-rule:nonzero;stroke:none" id="path128"/>
      <path d="m 25067.2,20877.3 c 118.1,0 225.9,48.7 304.1,125.4 v 0 c 78.3,78.3 125.5,186.1 125.5,304.2 0,118.1 -48.7,225.9 -125.5,304.1 -78.2,78.3 -186,125.5 -304.1,125.5 -119.6,0 -225.9,-48.7 -304.2,-125.5 -78.2,-78.2 -125.4,-186 -125.4,-304.1 0,-119.6 48.7,-225.9 125.4,-304.2 78.3,-78.2 186.1,-125.4 304.2,-125.4" style="fill:#772d19;fill-opacity:1;fill-rule:nonzero;stroke:none" id="path130"/>
      <path d="m 25291.6,21084 c -57.6,-57.6 -135.8,-93.1 -223,-93.1 -87.1,0 -166.8,35.5 -222.9,93.1 -57.6,57.5 -93,135.8 -93,224.4 0,87.1 35.4,166.8 93,222.9 57.6,57.6 135.8,93 222.9,93 87.2,0 166.9,-35.4 223,-93 57.6,-57.6 93,-135.8 93,-222.9 0,-87.2 -35.4,-166.9 -93,-223 v 0 -1.4" style="fill:#37b34a;fill-opacity:1;fill-rule:nonzero;stroke:none" id="path132"/>
      <path d="m 25067.2,21098.7 c 57.6,0 109.2,23.6 146.1,60.5 36.9,36.9 60.6,90.1 60.6,146.2 0,57.6 -23.7,109.3 -60.6,146.2 -36.9,38.3 -90,60.5 -146.1,60.5 -57.6,0 -109.3,-23.6 -146.2,-60.5 v 0 c -36.9,-36.9 -60.5,-90.1 -60.5,-146.2 0,-57.6 23.6,-109.3 60.5,-146.2 38.4,-36.9 90.1,-60.5 146.2,-60.5" style="fill:#772d19;fill-opacity:1;fill-rule:nonzero;stroke:none" id="path134"/>
      <path d="m 25133.6,21240.4 c -16.2,-16.2 -39.9,-28 -66.4,-28 -26.6,0 -48.7,10.3 -66.5,26.6 -16.2,16.2 -26.5,39.8 -26.5,66.4 0,26.6 10.3,48.7 26.5,66.4 16.3,16.3 39.9,26.6 66.5,26.6 25.1,0 48.7,-10.3 66.4,-28 16.2,-16.3 28.1,-39.9 28.1,-66.5 0,-25.1 -10.4,-48.7 -28.1,-66.4 v 2.9" style="fill:#ffcc3d;fill-opacity:1;fill-rule:nonzero;stroke:none" id="path136"/>
      <path d="m 28827.5,19228.2 c 118.1,0 225.9,48.7 304.1,125.4 v 0 c 78.2,78.3 125.5,186.1 125.5,304.2 0,118.1 -48.7,225.9 -125.5,304.1 -78.2,78.3 -186,125.5 -304.1,125.5 -119.6,0 -225.9,-48.7 -304.2,-125.5 -78.2,-78.2 -125.5,-186 -125.5,-304.1 0,-119.6 48.8,-225.9 125.5,-304.2 78.3,-78.2 186.1,-125.4 304.2,-125.4" style="fill:#772d19;fill-opacity:1;fill-rule:nonzero;stroke:none" id="path138"/>
      <path d="m 29050.4,19434.8 c -57.6,-57.5 -135.8,-93 -222.9,-93 -87.1,0 -166.9,35.5 -223,93 -57.5,57.6 -93,135.9 -93,224.5 0,87.1 35.5,166.8 93,222.9 57.6,57.6 135.9,93 223,93 87.1,0 166.8,-35.4 222.9,-93 57.6,-57.6 93,-135.8 93,-222.9 0,-87.1 -35.4,-166.9 -93,-223 v 0 -1.5" style="fill:#37b34a;fill-opacity:1;fill-rule:nonzero;stroke:none" id="path140"/>
      <path d="m 28827.5,19449.6 c 57.6,0 109.2,23.6 146.1,60.5 36.9,37 60.6,90.1 60.6,146.2 0,57.6 -23.7,109.3 -60.6,146.2 -36.9,38.3 -90,60.5 -146.1,60.5 -57.6,0 -109.3,-23.6 -146.2,-60.5 v 0 c -36.9,-36.9 -60.5,-90.1 -60.5,-146.2 0,-57.6 23.6,-109.2 60.5,-146.2 38.4,-36.9 90.1,-60.5 146.2,-60.5" style="fill:#772d19;fill-opacity:1;fill-rule:nonzero;stroke:none" id="path142"/>
      <path d="m 28892.4,19591.3 c -16.2,-16.2 -39.8,-28 -66.4,-28 -26.6,0 -48.7,10.3 -66.4,26.6 -16.3,16.2 -26.6,39.8 -26.6,66.4 0,26.6 10.3,48.7 26.6,66.4 16.2,16.3 39.8,26.6 66.4,26.6 25.1,0 48.7,-10.3 66.4,-28 16.3,-16.3 28.1,-39.9 28.1,-66.5 0,-25.1 -10.3,-48.7 -28.1,-66.4 v 2.9" style="fill:#ffcc3d;fill-opacity:1;fill-rule:nonzero;stroke:none" id="path144"/>
      <path d="m 27404.3,21776.4 c 118.1,0 225.8,48.7 304.1,125.5 v 0 c 78.2,78.2 125.5,186 125.5,304.1 0,118.1 -48.7,225.9 -125.5,304.1 -78.3,78.3 -186,125.5 -304.1,125.5 -119.6,0 -225.9,-48.7 -304.2,-125.5 -78.2,-78.2 -125.5,-186 -125.5,-304.1 0,-119.6 48.8,-225.9 125.5,-304.1 78.3,-78.3 186,-125.5 304.2,-125.5" style="fill:#772d19;fill-opacity:1;fill-rule:nonzero;stroke:none" id="path146"/>
      <path d="m 27627.2,21984.5 c -57.6,-57.6 -135.8,-93 -222.9,-93 -87.1,0 -166.9,35.4 -223,93 -57.6,57.6 -93,135.9 -93,224.4 0,87.1 35.4,166.9 93,223 57.6,57.5 135.9,93 223,93 87.1,0 166.8,-35.5 222.9,-93 57.6,-57.6 93,-135.9 93,-223 0,-87.1 -35.4,-166.8 -93,-222.9 v 0 -1.5" style="fill:#37b34a;fill-opacity:1;fill-rule:nonzero;stroke:none" id="path148"/>
      <path d="m 27404.3,21999.3 c 57.5,0 109.2,23.6 146.1,60.5 36.9,36.9 60.6,90.1 60.6,146.2 0,57.6 -23.7,109.2 -60.6,146.1 -36.9,38.4 -90,60.6 -146.1,60.6 -57.6,0 -109.3,-23.7 -146.2,-60.6 v 0 c -36.9,-36.9 -60.5,-90 -60.5,-146.1 0,-57.6 23.6,-109.3 60.5,-146.2 38.4,-36.9 90.1,-60.5 146.2,-60.5" style="fill:#772d19;fill-opacity:1;fill-rule:nonzero;stroke:none" id="path150"/>
      <path d="m 27470.7,22141 c -16.2,-16.2 -39.9,-28 -66.4,-28 -26.6,0 -48.8,10.3 -66.5,26.5 -16.2,16.3 -26.6,39.9 -26.6,66.5 0,26.6 10.4,48.7 26.6,66.4 16.3,16.3 39.9,26.6 66.5,26.6 25.1,0 48.7,-10.3 66.4,-28.1 16.2,-16.2 28,-39.8 28,-66.4 0,-25.1 -10.3,-48.7 -28,-66.4 v 2.9" style="fill:#ffcc3d;fill-opacity:1;fill-rule:nonzero;stroke:none" id="path152"/>
      <path d="m 31120.3,19860 c 118.1,0 225.8,48.8 304.1,125.5 v 0 c 78.2,78.3 125.5,186.1 125.5,304.2 0,118.1 -48.7,225.8 -125.5,304.1 -78.3,78.2 -186,125.5 -304.1,125.5 -119.6,0 -225.9,-48.7 -304.2,-125.5 -78.2,-78.3 -125.5,-186 -125.5,-304.1 0,-118.1 48.8,-225.9 125.5,-304.2 78.3,-78.2 186.1,-125.5 304.2,-125.5" style="fill:#772d19;fill-opacity:1;fill-rule:nonzero;stroke:none" id="path154"/>
      <path d="m 31343.2,20066.7 c -57.6,-57.5 -135.8,-93 -222.9,-93 -87.1,0 -166.9,35.5 -223,93 -57.5,57.6 -93,135.9 -93,224.4 0,87.1 35.5,166.9 93,223 57.6,57.5 135.9,93 223,93 87.1,0 166.8,-35.5 222.9,-93 57.6,-57.6 93,-135.9 93,-223 0,-87.1 -35.4,-166.8 -93,-222.9 v 0 -1.5" style="fill:#37b34a;fill-opacity:1;fill-rule:nonzero;stroke:none" id="path156"/>
      <path d="m 31120.3,20083 c 57.5,0 109.2,23.6 146.1,60.5 36.9,36.9 60.6,90.1 60.6,146.2 0,57.5 -23.7,109.2 -60.6,146.1 -36.9,38.4 -90,60.6 -146.1,60.6 -57.6,0 -109.3,-23.7 -146.2,-60.6 v 0 c -36.9,-36.9 -60.5,-90 -60.5,-146.1 0,-57.6 23.6,-109.3 60.5,-146.2 38.4,-36.9 90.1,-60.5 146.2,-60.5" style="fill:#772d19;fill-opacity:1;fill-rule:nonzero;stroke:none" id="path158"/>
      <path d="m 31185.2,20224.7 c -16.2,-16.2 -39.8,-28 -66.4,-28 -26.6,0 -48.7,10.3 -66.5,26.5 -16.2,16.3 -26.5,39.9 -26.5,66.5 0,26.5 10.3,48.7 26.5,66.4 16.3,16.2 39.9,26.6 66.5,26.6 25.1,0 48.7,-10.4 66.4,-28.1 16.3,-16.2 28.1,-39.8 28.1,-66.4 0,-25.1 -10.4,-48.7 -28.1,-66.4 v 2.9" style="fill:#ffcc3d;fill-opacity:1;fill-rule:nonzero;stroke:none" id="path160"/>
      <path d="m 23128.7,17418.1 c 118.1,0 225.9,48.8 304.1,125.5 v 0 c 78.3,78.3 125.5,186.1 125.5,304.2 0,118.1 -48.7,225.8 -125.5,304.1 -78.2,78.2 -186,125.5 -304.1,125.5 -119.6,0 -225.9,-48.7 -304.1,-125.5 -78.3,-78.3 -125.5,-186 -125.5,-304.1 0,-119.6 48.7,-225.9 125.5,-304.2 78.2,-78.2 186,-125.5 304.1,-125.5" style="fill:#772d19;fill-opacity:1;fill-rule:nonzero;stroke:none" id="path162"/>
      <path d="m 23351.6,17624.8 c -57.5,-57.5 -135.8,-93 -222.9,-93 -87.1,0 -166.8,35.5 -222.9,93 -57.6,57.6 -93,135.8 -93,224.4 0,87.1 35.4,166.9 93,223 57.6,57.5 135.8,93 222.9,93 87.1,0 166.8,-35.5 222.9,-93 57.6,-57.6 93.1,-135.9 93.1,-223 0,-87.1 -35.5,-166.8 -93.1,-222.9 v 0 -1.5" style="fill:#37b34a;fill-opacity:1;fill-rule:nonzero;stroke:none" id="path164"/>
      <path d="m 23128.7,17641.1 c 57.6,0 109.3,23.6 146.2,60.5 36.9,36.9 60.5,90.1 60.5,146.2 0,57.5 -23.6,109.2 -60.5,146.1 -36.9,38.4 -90.1,60.5 -146.2,60.5 -57.6,0 -109.2,-23.6 -146.2,-60.5 v 0 c -36.9,-36.9 -60.5,-90 -60.5,-146.1 0,-57.6 23.6,-109.3 60.5,-146.2 38.4,-36.9 90.1,-60.5 146.2,-60.5" style="fill:#772d19;fill-opacity:1;fill-rule:nonzero;stroke:none" id="path166"/>
      <path d="m 23195.1,17782.8 c -16.2,-16.2 -39.8,-28 -66.4,-28 -26.6,0 -48.7,10.3 -66.4,26.5 -16.3,16.3 -26.6,39.9 -26.6,66.5 0,26.5 10.3,48.7 26.6,66.4 16.2,16.2 39.8,26.6 66.4,26.6 25.1,0 48.7,-10.4 66.4,-28.1 16.3,-16.2 28.1,-39.8 28.1,-66.4 0,-25.1 -10.3,-48.7 -28.1,-66.5 v 3" style="fill:#ffcc3d;fill-opacity:1;fill-rule:nonzero;stroke:none" id="path168"/>
      <path d="m 25459.9,14686.9 c 118.1,0 225.9,48.7 304.1,125.5 v 0 c 78.3,78.2 125.5,186 125.5,304.1 0,118.1 -48.7,225.9 -125.5,304.1 -78.2,78.3 -186,125.5 -304.1,125.5 -119.6,0 -225.9,-48.7 -304.1,-125.5 -78.3,-78.2 -125.5,-186 -125.5,-304.1 0,-119.6 48.7,-225.9 125.5,-304.1 78.2,-78.3 186,-125.5 304.1,-125.5" style="fill:#772d19;fill-opacity:1;fill-rule:nonzero;stroke:none" id="path170"/>
      <path d="m 25682.8,14893.5 c -57.6,-57.5 -135.8,-93 -222.9,-93 -87.1,0 -166.8,35.5 -222.9,93 -57.6,57.6 -93.1,135.9 -93.1,224.5 0,87.1 35.5,166.8 93.1,222.9 57.5,57.6 135.8,93 222.9,93 87.1,0 166.8,-35.4 222.9,-93 57.6,-57.6 93,-135.8 93,-222.9 0,-87.1 -35.4,-166.9 -93,-223 v 0 -1.5" style="fill:#37b34a;fill-opacity:1;fill-rule:nonzero;stroke:none" id="path172"/>
      <path d="m 25459.9,14909.8 c 57.6,0 109.2,23.6 146.1,60.5 37,36.9 60.6,90.1 60.6,146.2 0,57.6 -23.6,109.2 -60.6,146.1 -36.9,38.4 -90,60.6 -146.1,60.6 -57.6,0 -109.3,-23.6 -146.2,-60.6 v 0 c -36.9,-36.9 -60.5,-90 -60.5,-146.1 0,-57.6 23.6,-109.3 60.5,-146.2 38.4,-36.9 90.1,-60.5 146.2,-60.5" style="fill:#772d19;fill-opacity:1;fill-rule:nonzero;stroke:none" id="path174"/>
      <path d="m 25526.3,15051.5 c -16.2,-16.2 -39.8,-28 -66.4,-28 -26.6,0 -48.7,10.3 -66.4,26.6 -16.3,16.2 -26.6,39.8 -26.6,66.4 0,26.6 10.3,48.7 26.6,66.4 16.2,16.3 39.8,26.6 66.4,26.6 25.1,0 48.7,-10.3 66.4,-28 16.3,-16.3 28.1,-39.9 28.1,-66.5 0,-25.1 -10.4,-48.7 -28.1,-66.4 v 2.9" style="fill:#ffcc3d;fill-opacity:1;fill-rule:nonzero;stroke:none" id="path176"/>
      <path d="m 22465.8,22712.4 v 7.4 c 0,47.2 7.4,84.1 29.6,112.2 23.6,31 59,45.7 110.7,42.8 42.8,-1.5 116.6,-19.2 191.9,-41.4 110.7,-32.4 228.8,-73.8 259.8,-90 99,-47.3 97.5,-88.6 93.1,-172.8 v -10.3 c -1.5,-42.8 -10.4,-76.8 -32.5,-98.9 -26.6,-28.1 -62,-32.5 -112.2,-14.8 -62,23.6 -134.4,47.3 -205.2,69.4 -73.9,23.6 -146.2,42.8 -203.8,57.6 -132.9,32.5 -132.9,32.5 -134.3,140.3 l 2.9,-1.5" style="fill:#772d19;fill-opacity:1;fill-rule:nonzero;stroke:none" id="path178"/>
      <path d="m 22567.7,22721.2 v -7.3 c 0,-26.6 0,-26.6 56.1,-41.4 144.7,-35.4 245.1,-78.2 382.4,-128.4 31,-11.8 41.3,-11.8 42.8,16.2 v 11.8 c 1.5,38.4 2.9,56.1 -35.4,73.8 -82.7,39.9 -289.4,107.8 -385.4,130 -48.7,11.8 -62,-1.5 -62,-54.7 h 1.5" style="fill:#37b34a;fill-opacity:1;fill-rule:nonzero;stroke:none" id="path180"/>
      <path d="m 19703.5,19954.5 v 7.4 c 0,47.3 -7.3,84.2 -29.5,112.2 -23.6,31 -59,45.8 -110.7,42.8 -42.8,-1.4 -116.6,-19.2 -191.9,-41.3 -110.8,-32.5 -228.9,-73.8 -259.9,-90.1 -98.9,-47.2 -97.4,-88.6 -93,-172.7 v -11.8 c 1.5,-42.8 10.3,-76.8 32.5,-98.9 26.6,-28.1 62,-32.5 112.2,-14.8 62,23.6 134.3,47.2 205.2,69.4 73.8,23.6 146.2,42.8 203.7,57.6 132.9,32.5 132.9,32.5 134.4,140.2 h -3" style="fill:#772d19;fill-opacity:1;fill-rule:nonzero;stroke:none" id="path182"/>
      <path d="m 19601.7,19963.4 v -7.4 c 0,-26.6 0,-26.6 -56.1,-41.3 -144.7,-35.5 -245.1,-78.3 -382.4,-128.5 -31,-11.8 -41.3,-11.8 -42.8,16.3 v 11.8 c -1.5,38.4 -3,56.1 35.4,73.8 82.7,39.9 289.4,107.8 385.3,129.9 48.8,11.8 62.1,-1.5 62.1,-54.6 h -1.5" style="fill:#37b34a;fill-opacity:1;fill-rule:nonzero;stroke:none" id="path184"/>
      <path d="m 19783.3,22356.6 c -152.1,348.4 -403.1,500.5 -642.3,510.8 -106.2,4.4 -211.1,-19.2 -302.6,-65 -93,-47.2 -172.7,-116.6 -233.3,-205.2 -134.3,-199.3 -160.9,-491.6 28.1,-820.8 l 32.5,-54.7 56.1,29.6 c 59,29.5 116.6,59 172.7,85.6 l 82.7,38.4 c 7.4,-29.6 14.7,-60.5 23.6,-93 17.7,-63.5 39.9,-128.5 66.4,-186.1 109.3,-239.1 386.8,-103.3 420.8,-85.6 1.5,0 318.9,146.2 184.5,391.3 -31,54.6 -69.3,110.7 -109.2,162.4 -20.7,26.5 -39.9,51.6 -60.5,73.8 l 82.6,45.7 c 51.7,28.1 107.8,56.1 166.9,85.7 l 57.5,28 -25.1,57.6 -1.4,1.5" style="fill:#772d19;fill-opacity:1;fill-rule:nonzero;stroke:none" id="path186"/>
      <path d="m 19133.7,22734.5 c 180.1,-8.8 370.5,-119.6 499,-373.5 -38.4,-19.2 -76.8,-39.9 -112.2,-59.1 -54.7,-29.5 -107.8,-59 -158,-88.5 l -70.9,-41.4 56.1,-62 c 32.5,-35.4 70.9,-81.2 109.3,-128.4 36.9,-47.3 72.3,-97.5 98.9,-146.2 65,-118.1 -124,-205.2 -125.5,-205.2 l -2.9,-1.5 c 0,0 -181.6,-100.4 -237.7,23.6 -23.7,50.2 -42.8,107.8 -59.1,165.4 -16.2,57.6 -29.5,115.2 -38.4,163.9 l -16.2,81.2 -76.8,-32.5 c -51.7,-22.2 -106.3,-47.2 -160.9,-72.3 -38.4,-17.8 -76.8,-37 -118.1,-57.6 -127,253.9 -103.4,473.9 -3,623 47.3,69.4 109.3,124 181.6,160.9 72.4,36.9 153.6,54.7 237.7,50.2 h -2.9" style="fill:#f4ebe0;fill-opacity:1;fill-rule:nonzero;stroke:none" id="path188"/>
      <path d="m 26692.7,18349.7 v 7.4 c 0,47.3 -7.4,84.2 -29.6,112.2 -23.6,31 -59,45.8 -110.7,42.8 -42.8,-1.5 -116.6,-19.2 -191.9,-41.3 -110.8,-32.5 -228.9,-73.8 -259.9,-90.1 -98.9,-47.2 -97.4,-88.6 -93,-172.7 v -11.8 c 1.5,-42.8 10.4,-76.8 32.5,-98.9 26.6,-28.1 62,-32.5 112.2,-14.8 62,23.6 134.4,47.2 205.2,69.4 73.8,23.6 146.2,42.8 203.8,57.6 132.8,32.4 132.8,32.4 134.3,140.2 h -2.9" style="fill:#772d19;fill-opacity:1;fill-rule:nonzero;stroke:none" id="path190"/>
      <path d="m 26590.8,18358.6 v -7.4 c 0,-26.6 0,-26.6 -56.1,-41.3 -144.7,-35.5 -245.1,-78.3 -382.4,-128.5 -31,-11.8 -41.3,-11.8 -42.8,16.3 v 11.8 c -1.5,38.4 -3,56.1 35.4,73.8 82.7,39.8 289.4,107.8 385.3,129.9 48.8,11.8 62.1,-1.5 62.1,-54.6 h -1.5" style="fill:#37b34a;fill-opacity:1;fill-rule:nonzero;stroke:none" id="path192"/>
      <path d="m 30953.4,17029.8 v 7.4 c 0,47.3 -7.4,84.2 -29.5,112.2 -23.6,31 -59.1,45.8 -110.7,42.9 -42.8,-1.5 -116.7,-19.2 -191.9,-41.4 -110.8,-32.5 -228.9,-73.8 -259.9,-90 -98.9,-47.3 -97.4,-88.6 -93,-172.8 v -11.8 c 1.5,-42.8 10.3,-76.8 32.5,-98.9 26.6,-28.1 62,-32.5 112.2,-14.8 62,23.7 134.3,47.3 205.2,69.4 73.8,23.6 146.2,42.8 203.7,57.6 132.9,32.5 132.9,32.5 134.4,140.2 h -3" style="fill:#772d19;fill-opacity:1;fill-rule:nonzero;stroke:none" id="path194"/>
      <path d="m 30851.6,17040.2 v -7.4 c 0,-26.6 0,-26.6 -56.1,-41.3 -144.7,-35.5 -245.1,-78.3 -382.4,-128.5 -31,-11.8 -41.3,-11.8 -42.8,16.3 v 11.8 c -1.5,38.4 -3,56.1 35.4,73.8 82.7,39.9 289.4,107.8 385.3,129.9 48.8,11.8 62,-1.5 62,-54.6 h -1.4" style="fill:#37b34a;fill-opacity:1;fill-rule:nonzero;stroke:none" id="path196"/>
      <path d="m 31025.8,21667.1 h 7.4 c 47.2,-2.9 84.1,4.4 112.2,26.6 31,23.6 47.2,57.6 47.2,109.2 0,42.8 -14.8,116.7 -35.4,193.4 -28.1,110.8 -66.5,230.4 -79.8,262.8 -42.8,100.4 -85.6,100.4 -169.7,99 h -11.8 c -44.3,0 -76.8,-7.4 -100.4,-28.1 -28.1,-25.1 -35.5,-60.5 -17.8,-110.7 20.7,-63.5 42.9,-135.9 62.1,-206.7 20.6,-75.3 38.3,-147.7 50.2,-205.2 28,-134.4 28,-134.4 135.8,-138.8 v -1.5" style="fill:#772d19;fill-opacity:1;fill-rule:nonzero;stroke:none" id="path198"/>
      <path d="m 31039.1,21769 h -7.4 c -26.6,1.5 -26.6,1.5 -38.4,57.6 -31,146.1 -69.4,248 -115.2,386.8 -10.3,31 -10.3,41.3 17.8,41.3 h 11.8 c 38.3,0 56.1,0 72.3,-38.4 36.9,-84.1 97.4,-292.3 115.2,-389.7 8.8,-48.8 -4.5,-62.1 -57.6,-59.1 l 1.5,1.5" style="fill:#37b34a;fill-opacity:1;fill-rule:nonzero;stroke:none" id="path200"/>
      <path d="m 14156.9,23273.4 c 36.9,-168.3 64.9,-333.7 70.8,-473.9 23.6,-581.7 97.5,-897.6 339.6,-1553.2 242.1,-655.5 485.7,-1139.7 776.5,-2013.7 290.9,-874 437,-1430.6 921.3,-2037.4 485.7,-606.8 581.7,-630.4 1164.8,-1188.5 431.1,-413.3 1408.5,-1039.3 1885.4,-1336.1 l -326.3,-565.4 c -273.1,141.7 -645.2,366.1 -1073.3,713.1 -897.7,727.8 -1139.8,1237.2 -1844,1867.6 -702.8,630.4 -1285.9,1867.6 -1504.4,2402 -218.5,533 -704.2,1625.5 -874,2571.8 -113.7,631.9 -97.5,1219.5 -73.8,1613.7 h 537.4" style="fill:#ffc280;fill-opacity:1;fill-rule:nonzero;stroke:none" id="path202"/>
      <path d="m 30813.2,14474.3 c 95.9,84.1 190.4,157.9 279,215.5 497.6,321.9 736.7,549.2 1191.4,1102.9 454.8,553.6 760.4,1020.1 1383.4,1728.8 621.5,708.6 1039.4,1126.4 1333.2,1872 293.7,745.6 268.6,844.5 472.4,1650.6 140.2,553.6 212.6,1618.1 245.1,2232.2 h 662.9 c 1.4,-304.1 -22.2,-704.2 -104.9,-1186.9 -199.3,-1175.2 -527,-1653.6 -736.7,-2605.8 -209.6,-952.3 -1008.3,-2108.3 -1368.6,-2577.8 -360.2,-469.4 -1079.2,-1464.5 -1823.3,-2102.3 -439.9,-376.5 -897.6,-645.2 -1244.6,-828.2 l -289.3,501.9 v -2.9" style="fill:#ffc280;fill-opacity:1;fill-rule:nonzero;stroke:none" id="path204"/>
      <path d="m 20009.2,14199.7 c 155,-50.2 301.1,-106.3 419.2,-168.3 516.8,-270.2 825.3,-364.7 1514.8,-482.8 688,-118.1 1229.8,-150.6 2131.9,-335.1 902,-184.6 1457.1,-338.1 2224.8,-220 767.8,116.6 837.1,188.9 1612.2,413.4 543.3,157.9 1497.1,645.1 2018.2,921.2 l 330.7,-571.3 c -255.4,-156.5 -611.2,-345.5 -1076.2,-522.7 -1079.3,-413.4 -1641.8,-369.1 -2539.4,-662.9 -897.6,-293.8 -2260.3,-180.1 -2831.7,-101.8 -571.3,78.2 -1759.8,203.7 -2663.3,530 -590.6,212.6 -1083.7,512.3 -1412.9,729.3 l 271.7,471" style="fill:#ffc280;fill-opacity:1;fill-rule:nonzero;stroke:none" id="path206"/>
      <path d="m 32105,27817.6 c -162.4,-168.3 -326.3,-336.6 -491.6,-501.9 -369.1,-369.1 -744.1,-730.8 -1120.6,-1094 78.3,5.9 156.5,13.3 233.3,22.1 255.4,28.1 407.4,127 600.9,282 109.2,88.6 219.9,183.1 314.4,285 65,163.8 137.3,326.2 212.6,487.2 79.7,172.7 162.4,346.9 251,518.2 z m -11418.2,414.9 1006.9,-385.3 c 277.5,606.8 662.9,1125 1445.3,1212.1 358.8,39.8 764.8,10.3 1126.5,-3 411.9,-16.2 829.7,-26.6 1241.6,7.4 42.8,4.4 87.1,7.4 129.9,13.3 333.7,36.9 673.3,119.6 1002.5,186 l 354.3,72.3 400.1,-352.8 c 248,348.4 586.1,611.2 1126.5,671.7 358.7,39.9 764.7,10.4 1126.5,-2.9 411.9,-16.3 829.7,-26.6 1241.6,7.4 42.8,4.4 87.1,7.3 129.9,13.3 333.7,36.9 673.2,119.5 1001,186 l 354.3,72.3 736.7,-648.1 c 475.4,475.4 1074.8,817.9 1873.5,906.5 378,41.3 720.5,28 1024.6,-78.3 l 2732.8,301.2 -946.4,-2303.1 c 289.4,354.3 566.9,717.5 834.1,1080.7 l 478.4,651.1 1336.1,-1312.5 -264.3,-406 c -221.4,-342.5 -485.7,-677.7 -744.1,-996.6 -349.9,-431.1 -720.4,-850.4 -1107.2,-1253.4 -716.1,-745.6 -2313.5,-2356.3 -3540.3,-1895.7 -146.2,54.7 -271.7,131.4 -376.5,224.5 -339.6,-156.5 -710.1,-240.7 -1136.8,-287.9 -624.5,-69.4 -1191.4,90 -1553.2,450.3 -693.8,-453.3 -1497,-787 -2331.1,-878.5 -568.4,-62 -1139.8,-91.5 -1706.7,-155 -209.7,-23.6 -419.3,-47.2 -627.5,-76.8 -101.8,-14.7 -228.8,-28 -327.7,-53.1 l -655.5,-183.1 -197.9,618.6 c -572.8,-394.2 -1201.7,-670.3 -1867.6,-744.1 -568.4,-63.5 -1139.7,-91.5 -1706.6,-155 -209.7,-23.6 -419.3,-47.2 -627.5,-76.8 -101.9,-14.7 -228.8,-28 -327.7,-53.1 l -655.5,-183.1 -177.2,556.6 c -553.6,-355.8 -1178.1,-603.8 -1875,-680.6 -871,-96 -1644.7,379.4 -1688.9,1219.5 -16.3,302.6 56.1,547.7 171.2,829.7 l 183.1,447.3 c -791.3,-701.2 -1841,-1094 -3094.5,-1232.7 -91.5,-10.4 -183,-17.8 -274.6,-25.1 l -747,-1808.6 -3628.92,-400.1 3259.82,7999 c -459.2,62 -809.1,375 -835.6,848.9 -50.2,928.6 874,1179.6 1694.8,1271.1 589.1,65 1398.1,132.9 2006.4,-98.9 493.1,284.9 1060,438.5 1646.2,503.4 801.6,88.6 1812.9,70.9 2320.8,-611.2 156.5,-209.6 236.2,-451.7 255.4,-702.7 380.9,248 838.6,410.4 1243.1,454.7 721.9,79.7 1563.5,-242.1 1604.8,-1003.9 51.7,-971.5 -1136.8,-1644.7 -2066.9,-1749.5 v -7.4" style="fill:#772d19;fill-opacity:1;fill-rule:nonzero;stroke:none" id="path208"/>
      <path d="m 15805.9,26426.9 c -400,-989.2 -881.3,-1368.6 -1686,-1457.2 -97.4,-10.3 -219.9,-13.2 -342.5,-14.7 l 1926.7,4721.4 c 162.4,400.1 456.2,634.8 918.3,686.5 377.9,41.3 544.8,-107.8 558,-342.5 7.4,-134.4 -32.4,-318.9 -236.2,-835.6 l -1138.3,-2756.4 z m 6265.7,3525.6 c -16.2,312.9 -429.6,459.1 -843,413.3 -730.8,-81.2 -1497,-625.9 -1470.4,-1117.6 16.2,-301.1 428.1,-435.5 841.5,-391.2 621.6,67.9 1502.9,525.6 1471.9,1095.5 z M 39193,28839.3 c -1839.5,-2503.9 -3417.8,-3869.6 -2625,-1940 l 1136.8,2768.2 -1449.7,-159.4 -107.8,-270.2 c -184.6,237.7 -426.7,403 -1083.7,330.7 -949.3,-104.8 -1706.6,-603.8 -2585.1,-2511.3 -90,-189 -169.8,-375 -236.2,-553.6 -124,-147.7 -280.5,-293.8 -469.5,-445.9 -386.8,-313 -664.3,-400.1 -968.5,-432.6 -559.5,-62 -1074.8,-62 -1427.6,-101.8 -341.1,-38.4 -521.2,-91.6 -665.9,-141.8 729.4,800.2 2518.7,2369.6 3648.1,3696.9 l -193.4,169.7 c -363.2,-73.8 -726.3,-159.4 -1067.4,-196.3 -962.6,-106.3 -1973.9,39.8 -2498,-17.7 -877,-97.5 -922.7,-1283 -1513.3,-2146.7 -1077.7,-1591.5 -1277,-1759.8 -3091.5,-1960.6 -341,-38.4 -521.1,-91.5 -665.8,-141.7 716,798.7 2518.7,2357.7 3648.1,3696.8 l -193.4,169.8 c -363.2,-73.8 -726.4,-159.5 -1067.4,-196.4 -962.6,-106.3 -1973.9,39.9 -2498,-17.7 -937.5,-103.3 -1021.7,-1495.5 -1584.2,-2424.2 -494.6,-819.4 -1160.4,-1668.3 -1671.2,-1724.4 -134.4,-14.7 -209.7,22.2 -215.6,144.7 -2.9,56.1 17.8,125.5 50.2,208.2 l 1147.2,2813.9 -1575.3,602.4 -1613.7,-3933 c -97.4,-236.3 -138.8,-386.8 -128.4,-575.8 23.6,-447.4 416.3,-685.1 928.6,-629 1972.4,218.5 3253.9,2124.5 3887.3,3341.1 388.3,751.4 503.4,876.9 955.2,925.6 315.9,35.5 841.5,59.1 1232.7,79.8 -840,-1004 -2515.7,-2436 -3599.3,-3691 l 118.1,-369 c 132.9,36.9 583.1,97.4 1070.3,152 536,59.1 1085.2,85.7 1706.7,155 1717,189 3242.1,2123.1 3986.2,3555.1 277.6,547.8 636.3,699.8 1098.4,751.5 280.5,31 611.2,22.1 1002.5,42.8 -841.6,-992.1 -2515.8,-2413.8 -3599.4,-3692.4 l 118.1,-369.1 c 132.9,36.9 583.2,97.5 1070.4,152.1 535.9,59.1 1085.1,85.6 1706.6,155 1055.6,116.6 2021.2,691 2688.5,1278.5 0,-16.2 0,-32.4 1.5,-47.2 32.5,-614.2 537.4,-874 1194.4,-801.7 742.6,82.7 1111.7,280.5 1437.9,586.2 537.4,-2161.4 4176.7,2112.6 4963.6,3323.2 l -401.6,394.2 z m -4827.7,-2881.9 c -153.5,-342.5 -302.6,-528.5 -509.3,-550.7 -109.3,-11.8 -174.2,48.8 -180.2,159.5 -5.9,122.5 23.7,249.5 88.6,392.7 l 984.8,2413.9 c 95.9,258.3 211.1,394.1 454.7,420.7 158,17.7 211.1,-56.1 215.5,-132.9 3,-44.2 5.9,-100.4 -16.2,-147.6 l -1039.4,-2554.1 z m -21670.1,-3652.5 758.9,1838.1 c 233.3,2.9 451.8,16.2 671.7,39.8 1985.8,218.5 3113.7,1097 3689.5,2475.9 l 1215,2923.2 c 141.8,330.7 211.1,642.2 197.9,877 -32.5,614.1 -575.8,903.5 -1817.4,766.2 -754.5,-82.7 -1306.6,-313 -1705.2,-649.6 -262.8,318.9 -962.6,354.3 -1948.8,245.1 -913.9,-100.4 -1110.3,-302.7 -1094,-615.7 10.3,-190.4 150.6,-286.4 394.2,-259.8 l 121,13.3 c 329.3,36.9 503.5,-23.7 512.3,-180.1 3,-66.5 -17.7,-137.4 -50.2,-218.5 l -3051.6,-7488.2 2106.7,233.3" style="fill:#f83822;fill-opacity:1;fill-rule:nonzero;stroke:none" id="path210"/>
      <path d="m 15423.6,29770.9 c 379.4,928.6 -773.6,955.2 -1454.2,792.8 705.7,75.3 1477.8,-17.7 1151.5,-819.4 -984.7,-2410.9 -1956.2,-4817.4 -2945.3,-7220.9 l 304.1,34 z m 4347.9,-5746 c -413.4,90 -361.7,439.9 -255.5,711.6 l 736.8,1805.6 c 360.2,882.8 -3,874 -713.1,1148.6 708.6,-352.9 664.3,-546.3 419.3,-1145.7 l -736.7,-1805.6 c -161,-410.4 112.2,-798.7 547.7,-713.1 z m 1157.4,5989.6 c 17.7,2.9 34,4.4 51.7,5.9 884.3,97.4 447.3,-522.7 -84.2,-776.6 -85.6,-41.3 -178.6,-78.2 -274.6,-109.2 192,28 389.8,95.9 559.6,177.1 941.9,448.8 676.2,1005.4 -252.5,701.3 z m 2170.3,-5056.6 c 792.8,758.9 2238.1,2018.2 2881.8,2836.1 456.2,578.8 -617.1,329.2 -943.3,320.4 707.1,-106.3 580.2,-287.9 277.5,-659.9 -710.1,-872.6 -1454.2,-1646.2 -2217.5,-2496.6 z m 5351.8,605.3 c 792.8,758.9 2238.2,2018.2 2881.9,2836.1 456.2,578.8 -617.2,329.3 -943.4,320.4 707.1,-106.3 580.2,-287.9 277.5,-659.9 -710.1,-872.6 -1454.2,-1646.2 -2217.5,-2496.6 z m 4781.9,621.6 980.3,2400.5 c 121.1,324.8 311.6,562.5 702.8,605.4 174.2,19.1 335.1,-28.1 437,-130 -57.6,10.4 -119.6,11.8 -183.1,4.5 -392.7,-42.8 -581.7,-280.5 -702.7,-605.3 l -980.3,-2400.6 c -73.8,-162.4 -119.6,-330.7 -110.8,-507.9 6,-116.6 50.2,-218.5 124.1,-293.8 -218.5,31 -366.2,199.3 -378,419.3 -8.8,177.2 35.4,347 110.7,507.9 z m 3252.5,-475.4 c -775.1,101.9 -327.8,965.5 -196.4,1284.4 l 782.5,1903.1 c 249.5,608.2 -197.8,453.2 -595,352.8 252.5,34 478.3,81.2 296.8,-364.7 l -819.4,-1996 c -169.8,-411.9 -473.9,-1440.9 534.4,-1181.1 z m -20099.2,4963.5 c 3197.8,643.7 2190.9,-806.1 1311,-3527 211.1,509.3 946.3,1830.7 1145.6,2757.8 338.1,1570.9 -1616.6,1070.4 -2455.2,769.2 h -1.4" style="fill:#ffffd0;fill-opacity:1;fill-rule:nonzero;stroke:none" id="path212"/>
      <path d="m 34913,34326.9 c 1940,-993.6 1432.1,-4031.9 -1296.2,-3556.5 -202.3,-519.7 -215.6,-1126.5 -143.2,-1658 -2896.6,696.9 -6490.1,432.6 -9252.4,-682.1 -8.8,701.3 -180.1,1508.9 -689.4,2027.1 -2359.3,-14.8 -3162.4,3230.3 -1061.6,4308 -398.6,3946.3 6082.7,5347.4 8034.4,2945.4 2540.8,413.3 4361.2,-1136.8 4409.9,-3383.9 h -1.5" style="fill:#772d19;fill-opacity:1;fill-rule:nonzero;stroke:none" id="path214"/>
      <path d="m 25204.5,29415.1 c 2202.7,685 4544.2,1011.3 7062.9,444.3 209.6,-47.2 335.1,-75.2 414.9,-70.8 -785.5,376.5 -1799.7,646.6 -2598.4,761.8 1120.5,107.8 1826.2,-76.8 2777,-391.2 5.9,38.3 13.3,79.7 23.6,124 124,615.6 372.1,720.4 -382.4,1026 -2372.5,958.2 -6237.6,468 -8090.4,-866.6 791.3,332.2 1919.2,693.9 3290.8,832.7 0,0 -1734.7,-476.9 -3149.1,-1250.5 778,308.6 1836.6,628.9 3103.3,755.9 0,0 -1520.6,-419.3 -2875.9,-1107.3 770.6,301.2 1560.5,533 2790.3,657 0,0 -1215.1,-377.9 -2363.7,-916.8 z m -17.7,5588 c -629,113.7 -1173.7,131.4 -1641.8,75.3 -323.3,2376.9 3562.5,3475.4 5530.5,2760.8 1655,-600.9 1786.4,-2056.6 51.7,-2780 1423.2,91.5 2028.5,1085.1 1718.5,2035.9 1426.1,320.4 3341,-840 3487.1,-2558.5 -631.8,150.6 -1188.4,64.9 -1188.4,64.9 747,-100.4 1948.8,-721.9 2149.5,-1519.1 211.2,-837.1 -454.7,-1668.3 -1885.3,-1531 -429.6,203.7 -941.9,363.1 -1514.7,422.2 -1272.6,129.9 -1107.3,1107.3 95.9,1160.4 -1461.6,546.3 -1886.7,-922.7 -3202.2,-953.7 -844.5,-20.7 -2126,168.3 -2219,1903 -323.3,-360.2 -330.7,-866.6 -206.7,-1240.1 63.5,-193.4 428.2,-753 -253.9,-959.7 -686.5,-208.1 -1098.4,-448.8 -1563.5,-623 -2808,-1052.6 -4271.1,3693.9 643.7,3742.6 h -1.4" style="fill:#fdfdfd;fill-opacity:1;fill-rule:nonzero;stroke:none" id="path216"/>
      <path d="m 30134.1,30543 c 23.6,-4.4 398.6,-72.3 431.1,-193.4 33.9,-125.5 -2303.2,277.6 -5360.7,-936 2202.7,685 4544.2,1011.3 7062.9,444.4 209.6,-47.3 335.1,-75.3 414.9,-70.9 -767.8,369.1 -1756.9,636.3 -2548.2,754.4 z m 2273.6,801.7 c 42.8,-59.1 75.2,-125.5 81.2,-193.4 14.7,-200.8 -8.9,-406 -107.8,-544.8 -54.6,-76.8 -438.5,-100.4 -773.6,-106.3 408.9,-73.8 804.6,-193.4 1253.4,-342.5 5.9,38.4 13.3,79.7 23.6,124 124,615.6 372.1,720.5 -382.4,1026.1 -31,11.8 -62,25.1 -93,36.9 z m -5839.1,2738.6 c -323.3,-360.2 -330.7,-866.6 -206.7,-1240.1 63.5,-193.4 428.2,-753 -253.9,-959.7 -686.5,-208.1 -1098.4,-448.8 -1563.5,-623 -2247,-841.5 -3631.8,2028.5 -1578.2,3234.7 -380.9,-456.2 -806.1,-1243.1 -351.4,-2185 724.9,-1502.9 3345.5,14.8 3345.5,14.8 0,0 -301.2,1105.8 609.7,1759.8 z m 6714.5,496.1 c 748.6,-152.1 1821.9,-747.1 2010.8,-1495.6 211.2,-837.1 -454.7,-1668.3 -1885.3,-1531 -429.6,203.8 -941.9,363.2 -1514.7,422.3 -909.5,93 -1083.7,617.1 -671.8,928.6 -2.9,-131.4 62,-290.8 304.2,-441.4 555.1,-344 555.1,-75.3 1533.9,-416.4 978.8,-342.5 1569.4,134.4 1616.6,928.7 41.4,701.2 -1120.5,1440.9 -1392.2,1604.8 z m -56.1,33.9 v 0 0 z m -2861.2,871.1 c 507.9,397.1 674.7,1012.8 479.9,1612.2 1423.2,318.9 3330.6,-834.2 3487.1,-2545.3 -13.3,113.7 -144.7,996.6 -1139.7,1582.7 -667.3,392.7 -1449.8,493.1 -1941.4,513.8 -19.2,-100.4 -53.2,-212.6 -107.8,-336.6 -189,-432.6 -504.9,-682.1 -776.6,-826.8 z m -5179,-481.3 c -629,113.7 -1173.7,131.4 -1641.8,75.3 -323.3,2376.9 3562.5,3475.4 5530.5,2760.8 115.2,-41.3 222.9,-88.6 323.3,-137.3 -3470.9,645.2 -4984.2,-1006.9 -4985.7,-2248.5 434.1,-168.3 772.2,-450.3 772.2,-450.3 h 1.5" style="fill:#cccccc;fill-opacity:1;fill-rule:nonzero;stroke:none" id="path218"/>
    </g>
  </g>
</svg>